<?xml version="1.0" encoding="utf-8"?>
<!-- Generator: Adobe Illustrator 27.1.1, SVG Export Plug-In . SVG Version: 6.00 Build 0)  -->
<svg version="1.1" xmlns="http://www.w3.org/2000/svg" xmlns:xlink="http://www.w3.org/1999/xlink" x="0px" y="0px"
	 viewBox="0 0 1897 1096" style="enable-background:new 0 0 1897 1096;" xml:space="preserve">
<style type="text/css">
	.st0{display:none;}
	.st1{display:inline;fill:#F2F1F0;}
	.st2{display:inline;fill:#CCCBC6;}
	.st3{display:inline;fill:#D3D2D1;}
	.st4{fill:#939393;}
	.st5{fill:#333333;}
	.st6{fill:#E07EC2;}
	.st7{fill:#EFCEE5;}
	.st8{display:none;fill:#999999;}
	.st9{display:none;fill:#3E3E3E;}
	.st10{fill:#777776;}
	.st11{fill:#3E3E3E;}
	.st12{fill:#FBB03B;}
	.st13{fill:#FCE0BB;}
	.st14{display:inline;fill:#777776;}
	.st15{fill:#808080;}
	.st16{fill:#4D4D4D;}
	.st17{fill:#A0249D;}
	.st18{fill:#B069B2;}
	.st19{display:none;fill:#666666;}
	.st20{fill:#7F7F7F;}
	.st21{fill:#666666;}
	.st22{fill:#8ED6D6;}
	.st23{fill:#D2F7F7;}
	.st24{fill:#E07E1B;}
	.st25{fill:#662D91;}
	.st26{opacity:0.45;fill:#DDEDEB;}
	.st27{enable-background:new    ;}
	.st28{fill:#F9DE6B;stroke:#333333;stroke-width:11;stroke-miterlimit:10;}
	.st29{fill:#F7EFE7;}
</style>
<g id="Layer_14_copy" class="st0">
	<path class="st1" d="M-433,693c77.4-78.1,208.2-186.3,389-221c319.8-61.4,527.6,158.6,907,263c196.3,54,497.9,93.4,913-15
		c3,152.3,6,304.7,9,457c-675,7-1350,14-2025,21"/>
</g>
<g id="Layer_14" class="st0">
	<path class="st2" d="M-457,631.6c79.7-84.1,214.3-200.5,400.4-237.8c329.1-66,543.1,170.7,933.6,283
		c202,58.1,512.5,100.5,939.8-16.1c3.1,163.9,6.2,327.8,9.3,491.7c-694.8,7.5-1389.6,15.1-2084.3,22.6"/>
</g>
<g id="Layer_9" class="st0">
	<rect x="-168" y="31" class="st3" width="1920" height="1088"/>
</g>
<g id="Layer_12">
</g>
<g id="Layer_13">
</g>
<g id="Layer_10">
	<g>
		<g>
			<rect x="1067.3" y="970.5" class="st4" width="46.7" height="64.1"/>
			<g>
				<path class="st5" d="M1058.6,1027h62.8c1.4,0,2.6-1.4,2.6-3.2v-3.7c0-1.7-1.2-3.2-2.6-3.2h-62.8c-1.4,0-2.6,1.4-2.6,3.2v3.7
					C1056,1025.6,1057.2,1027,1058.6,1027z"/>
				<path class="st5" d="M1058.6,1009.6h62.8c1.4,0,2.6-1,2.6-2.3v-4.9c0-1.3-1.2-2.3-2.6-2.3h-62.8c-1.4,0-2.6,1-2.6,2.3v4.9
					C1056,1008.6,1057.2,1009.6,1058.6,1009.6z"/>
				<path class="st5" d="M1079.1,1053h23.4c0.9,0,1.7-0.4,2.3-1.1l10.6-13.7c1.4-1.8,0.1-4.5-2.3-4.5h-45c-2.4,0-3.7,2.7-2.2,4.5
					l11,13.7C1077.4,1052.6,1078.3,1053,1079.1,1053z"/>
				<path class="st5" d="M1058.6,992.7h62.8c1.4,0,2.6-1,2.6-2.3v-5.1c0-1.3-1.2-2.3-2.6-2.3h-62.8c-1.4,0-2.6,1-2.6,2.3v5.1
					C1056,991.7,1057.2,992.7,1058.6,992.7z"/>
			</g>
			<path class="st5" d="M1113.7,970.7h-44.7c-44.2,0-44.5-52.3-44.5-69.9l-17.9-175.3v-0.3c0-39.3,28-71.2,62.3-71.2h44.7
				c34.4,0,62.3,31.9,62.3,71.2l0,0.6l-19,175C1156.9,937.1,1151.6,970.7,1113.7,970.7z M1017.6,724.9l17.9,175.2v0.3
				c0,40.9,10.3,59.2,33.5,59.2h44.7c23.8,0,32.3-15.5,32.3-59.2l0-0.6l19-174.9c-0.1-33.1-23.1-59.9-51.3-59.9h-44.7
				C1040.7,665,1017.7,691.9,1017.6,724.9z"/>
			<g>
				<path class="st6" d="M1148.8,901.7l20.2-179.3c-0.1-33.9-24.5-61.4-54.4-61.4h-47.4c-29.9,0-54.2,27.5-54.4,61.4l18.9,179.6v0.3
					c0,42,10.9,60.7,35.5,60.7h47.4c25.2,0,34.2-15.9,34.2-60.7L1148.8,901.7z"/>
				<path class="st5" d="M1156.6,901.4l19-174.7l0-0.6c0-39.2-28-71.1-62.3-71.1h-44.7c-34.4,0-62.3,31.9-62.3,71.1v0.3l17.9,175
					c0,17.6,0.2,69.9,44.5,69.9h44.7C1151.2,971.3,1156.5,937.8,1156.6,901.4z M1113.3,960.3h-44.7c-23.1,0-33.5-18.2-33.5-59.1
					v-0.3l-17.9-175c0.1-33,23.1-59.9,51.3-59.9h44.7c28.2,0,51.2,26.8,51.3,59.8l-19,174.7l0,0.6
					C1145.6,944.8,1137.1,960.3,1113.3,960.3z"/>
			</g>
		</g>
		<path class="st7" d="M1119.4,773.5l-6.3-0.3c-7-0.4-10.1-8-9.7-17.1l-0.2-35.9c0.5-9.1,6.6-16.2,13.5-15.8l6.3,0.3
			c7,0.4,12.3,8.1,11.8,17.2l-3,37.1C1131.3,768.7,1126.4,773.9,1119.4,773.5z"/>
	</g>
</g>
<g id="Layer_11">
	<rect x="726.6" y="657" class="st8" width="80.2" height="93.2"/>
	<path id="blub_00000141422443608932636360000007272888726082204305_" class="st9" d="M794.1,771.1h-55.2l-18-27h91.3L794.1,771.1z
		 M812.1,721.6h-91.3v13.5h91.3V721.6z M812.1,699h-91.3v13.5h91.3V699z M812.1,676.5h-91.3V690h91.3V676.5z M819.8,666.9H713.9
		V561.2c-47-15.9-81.9-51.3-81.9-83.7c0-29.7,62.9-78.9,134.5-78.9c71.6,0,134.5,49.2,134.5,78.9c0,32.1-34.6,67.3-81.1,83.4V666.9z
		 M727.4,653.3h78.9V551.1l4.7-1.5c34.9-10.9,72.4-39.2,76.1-67.6H645.8c3.7,28.6,41.6,57,76.8,67.8l4.8,1.5V653.3z M648.3,468.5
		h236.3c-11.7-21.6-58.8-56.3-118.1-56.3C707.2,412.2,660,446.9,648.3,468.5z"/>
	<g>
		<rect x="852" y="635" class="st10" width="74" height="93.2"/>
		<path id="blub_00000115479618277515836060000016960830158833307045_" class="st11" d="M912.5,749.1h-50.1c-1.6,0-3.1-0.8-4-2.1
			l-11.6-17.4c-2.1-3.2,0.2-7.5,4-7.5h73.3c3.8,0,6.1,4.3,4,7.5L916.5,747C915.6,748.3,914.1,749.1,912.5,749.1z M928.3,699.6h-81.7
			c-2.7,0-4.8,2.1-4.8,4.8v3.9c0,2.7,2.1,4.8,4.8,4.8h81.7c2.7,0,4.8-2.1,4.8-4.8v-3.9C933.1,701.7,931,699.6,928.3,699.6z
			 M928.3,677h-81.7c-2.7,0-4.8,2.1-4.8,4.8v3.9c0,2.7,2.1,4.8,4.8,4.8h81.7c2.7,0,4.8-2.1,4.8-4.8v-3.9
			C933.1,679.2,931,677,928.3,677z M931.3,654.5h-84.6c-2.7,0-4.8,2.1-4.8,4.8v3.9c0,2.7,2.1,4.8,4.8,4.8h81.7
			c2.7,0,4.8-2.1,4.8-4.8v-6.9C933.1,655.3,932.3,654.5,931.3,654.5z M940.8,644.9H834.9V539.2c-47-15.9-81.9-51.3-81.9-83.7
			c0-29.7,62.9-78.9,134.5-78.9c71.6,0,134.5,49.2,134.5,78.9c0,32.1-34.6,67.3-81.1,83.4V644.9z M848.4,631.3h78.9V529.1l4.7-1.5
			c34.9-10.9,72.4-39.2,76.1-67.6H766.8c3.7,28.6,41.6,57,76.8,67.8l4.8,1.5V631.3z M769.3,446.5h236.3
			c-11.7-21.6-58.8-56.3-118.1-56.3C828.2,390.2,781,424.9,769.3,446.5z"/>
		<path class="st12" d="M1008.8,455.5c0-15.3-22.6-36.9-55.4-50.8c-18.8-8.5-41.3-14.5-65.9-14.5c-27.6,0-52.6,7.5-72.5,17.7
			c-29,13.8-48.4,33.4-48.4,47.6c0,1.5,0.1,3,0.3,4.6h-0.1c3.7,28.6,41.6,57,76.8,67.8l4.8,1.5v102h78.9V529.1l4.7-1.5
			c23.4-7.3,47.9-22.4,62.6-40.1C1003.7,477.2,1008.8,466.1,1008.8,455.5z"/>
		<ellipse class="st13" cx="950.4" cy="463.7" rx="34.9" ry="21"/>
	</g>
</g>
<g id="Layer_5">
	<g id="Layer_18" class="st0">
		<ellipse class="st14" cx="235" cy="845.5" rx="27" ry="58.5"/>
	</g>
	<g>
		<rect x="346.2" y="851.7" class="st10" width="35.1" height="41.6"/>
		<rect x="351" y="853.7" class="st10" width="25.6" height="55.7"/>
		<path id="blub_00000015343802447449035110000007407452512499572147_" class="st15" d="M394.6,876.7l-61.3,0
			c-1.8,0-3.2-1.4-3.2-3.2l0-6c0-1.8,1.4-3.2,3.2-3.2l61.3,0c1.8,0,3.2,1.4,3.2,3.2v6C397.8,875.2,396.4,876.7,394.6,876.7z
			 M387.5,887l-47.2,0c-1.8,0-3.2,1.4-3.2,3.2v6c0,1.8,1.4,3.2,3.2,3.2l47.2,0c1.8,0,3.2-1.4,3.2-3.2v-6
			C390.8,888.5,389.3,887,387.5,887z M379.5,905.6h-31.2c-1.8,0-3.2,1.4-3.2,3.2v6c0,1.8,1.4,3.2,3.2,3.2h31.2
			c1.8,0,3.2-1.4,3.2-3.2l0-6C382.8,907.1,381.3,905.6,379.5,905.6z M369.4,918.1h-11c-1.8,0-3.2,1.4-3.2,3.2v1.4
			c0,1.8,1.4,3.2,3.2,3.2h11c1.8,0,3.2-1.4,3.2-3.2v-1.4C372.7,919.6,371.2,918.1,369.4,918.1z M319.2,853.8l0-45.1
			c-13.8-11-77.2-64.3-77.2-113C242,628,296.5,573,363.4,573s121.4,55,121.4,122.7c0,48.5-63.2,101.9-76.9,112.9l0,45.1L319.2,853.8
			z M363.4,585.7c-60,0-108.8,49.3-108.8,109.9c0,47,73.9,104.2,74.7,104.8l2.5,1.9l0,38.7l63.5-0.1l0-38.7l2.5-1.9
			c0.7-0.6,74.4-57.7,74.4-104.7C472.2,635.1,423.4,585.7,363.4,585.7z"/>
		<path id="blub_00000132808801815327658270000011349442172078748346_" class="st16" d="M394.8,876.7l-61.8,0c-1.6,0-3-1.3-3-3
			l0-6.6c0-1.6,1.3-3,3-3l61.8,0c1.6,0,3,1.3,3,3v6.6C397.8,875.4,396.5,876.7,394.8,876.7z M387.8,887l-47.7,0c-1.6,0-3,1.3-3,3
			v6.6c0,1.6,1.3,3,3,3l47.7,0c1.6,0,3-1.3,3-3V890C390.8,888.4,389.4,887,387.8,887z M379.8,905.6h-31.7c-1.6,0-3,1.3-3,3v6.6
			c0,1.6,1.3,3,3,3h31.7c1.6,0,3-1.3,3-3l0-6.6C382.8,907,381.4,905.6,379.8,905.6z M369.7,918.1h-11.5c-1.6,0-3,1.3-3,3v1.9
			c0,1.6,1.3,3,3,3h11.5c1.6,0,3-1.3,3-3v-1.9C372.7,919.5,371.3,918.1,369.7,918.1z M319.2,853.8l0-45.1
			c-13.8-11-77.2-64.3-77.2-113C242,628,296.5,573,363.4,573s121.4,55,121.4,122.7c0,48.5-63.2,101.9-76.9,112.9l0,45.1L319.2,853.8
			z M363.4,585.7c-60,0-108.8,49.3-108.8,109.9c0,47,73.9,104.2,74.7,104.8l2.5,1.9l0,38.7l63.5-0.1l0-38.7l2.5-1.9
			c0.7-0.6,74.4-57.7,74.4-104.7C472.2,635.1,423.4,585.7,363.4,585.7z"/>
		<path class="st17" d="M364,576.9c-64.5,0-117,53-117,118.2c0,50.6,79.5,112.1,80.3,112.7l2.7,2.1l0,41.6l68.3-0.1l0-41.6l2.7-2.1
			c0.8-0.6,80-62.1,80-112.6C481,630,428.5,576.9,364,576.9z"/>
		<path class="st11" d="M357.7,926h12.4c1.4,0,2.5-1.1,2.5-2.5v-2.8c0-1.4-1.1-2.5-2.5-2.5h-12.4c-1.4,0-2.5,1.1-2.5,2.5v2.8
			C355.2,924.9,356.3,926,357.7,926z"/>
		<path class="st11" d="M345.1,914.1c0,2.2,1.8,4,4,4h6.1h17.5h6.1c2.2,0,4-1.8,4-4v-4.4c0-2.2-1.8-4-4-4h-29.6c-2.2,0-4,1.8-4,4
			L345.1,914.1z"/>
		<path class="st11" d="M341.5,899.5l44.8,0c2.5,0,4.4-2,4.4-4.4l0-3.6c0-2.5-2-4.4-4.4-4.4l-44.8,0c-2.5,0-4.4,2-4.4,4.4v3.6
			C337.1,897.6,339.1,899.5,341.5,899.5z"/>
		<path class="st11" d="M334.4,876.7h59c2.4,0,4.4-2,4.4-4.4v-3.7c0-2.4-2-4.4-4.4-4.4l-59,0c-2.4,0-4.4,2-4.4,4.4v3.7
			C330.1,874.7,332,876.7,334.4,876.7z"/>
		<path class="st11" d="M363.4,573C296.5,573,242,628,242,695.7c0,48.6,63.4,102,77.2,113l0,45.1l88.7-0.1l0-45.1
			c13.7-11,76.9-64.3,76.9-112.9C484.8,628,430.3,573,363.4,573z M397.8,800.3l-2.5,1.9l0,38.7l-63.5,0.1l0-38.7l-2.5-1.9
			c-0.7-0.6-74.7-57.7-74.7-104.8c0-60.6,48.8-109.9,108.8-109.9c60,0,108.8,49.3,108.8,109.9C472.2,742.6,398.5,799.8,397.8,800.3z
			"/>
		<ellipse class="st18" cx="406.5" cy="647.3" rx="29.9" ry="30.2"/>
	</g>
</g>
<g id="Layer_20">
</g>
<g id="Layer_6">
	<g id="Layer_21">
	</g>
	<g id="Layer_22">
	</g>
	<g id="Layer_19">
	</g>
</g>
<g id="Layer_7">
	<g id="Layer_23">
	</g>
	
		<rect x="1568.2" y="46.8" transform="matrix(-1 -9.769393e-03 9.769393e-03 -1 3215.208 189.3338)" class="st19" width="79.7" height="80"/>
	<g>
		<path class="st20" d="M720,999h-30c-6.6,0-12-5.4-12-12V887c0-6.6,5.4-12,12-12h30c6.6,0,12,5.4,12,12v100
			C732,993.6,726.6,999,720,999z"/>
		<g>
			<path class="st5" d="M671.7,988h66.7c1.5,0,2.7-1.8,2.7-4.1v-1.8c0-2.3-1.2-4.1-2.7-4.1h-66.7c-1.5,0-2.7,1.8-2.7,4.1v1.8
				C669,986.2,670.2,988,671.7,988z"/>
			<path class="st5" d="M670.7,973.9h68.1c1.5,0,2.7-1.3,2.7-2.8v-3.2c0-1.6-1.2-2.8-2.7-2.8h-68.1c-1.5,0-2.7,1.3-2.7,2.8v3.2
				C668,972.7,669.2,973.9,670.7,973.9z"/>
			<path class="st5" d="M691.2,1007h27c0.7,0,1.4-0.2,1.9-0.7l11.2-9.9c1.7-1.5,0.5-4.1-1.9-4.1l-49.7,0c-2.4,0-3.6,2.7-1.8,4.1
				l11.5,9.9C689.9,1006.8,690.5,1007,691.2,1007z"/>
			<path class="st5" d="M671.1,960h67.2c1.7,0,3.1-1.5,3.1-3.4v-2.8c0-1.9-1.4-3.4-3.1-3.4h-67.2c-1.7,0-3.1,1.5-3.1,3.4v2.8
				C668,958.5,669.4,960,671.1,960z"/>
			<path class="st21" d="M640,871.9c0,3.6,0.3,7.1,0.9,10.6c0.1,0.4,0.2,0.9,0.2,1.3c5.6,28,30.5,49.1,60.2,49.1h4.2
				c29.7,0,54.6-21.2,60.2-49.1c0.8-3.9,1.2-7.9,1.2-11.9V867l-127,0V871.9z"/>
			<path class="st22" d="M706.2,615.3h-4.3c-34.6,0-62.8,24.8-62.8,55.4l0,184v10.2V875l130,0v-10v-0.1v-10.2v-184
				C769,640.1,740.8,615.3,706.2,615.3z"/>
			<path class="st5" d="M705.5,611.3h-4.1c-39.4,0-71.5,28.8-71.5,64.1l0,176.5v9.8v9.8v4.3c0,3.5,0.3,7,1,10.4
				c2.3,12.5,8.6,23.8,17.7,32.8l9.2,11.2l11.6,14.1h69.1l11.1-14.1l9.5-11.9c8.7-8.9,14.8-19.9,17-32c0.6-3.4,1-6.8,1-10.4v-4.3
				v-9.8v-9.8l0-176.5C777,640,744.9,611.3,705.5,611.3z M764.8,861.7v0.1v9.6v4.3c0,3.6-0.4,7-1.1,10.4
				c-5.4,24.3-29.4,42.7-58.1,42.7h-4.1c-28.7,0-52.7-18.4-58.1-42.7c-0.1-0.4-0.2-0.8-0.2-1.2c-0.6-3-0.9-6.1-0.9-9.2v-4.3v-9.8
				l0-9.8V675.4c0-29.3,26.6-53.1,59.2-53.1h4.1c32.6,0,59.2,23.8,59.2,53.1l0,176.5V861.7z"/>
		</g>
		<path class="st23" d="M732.9,657.2L732.9,657.2c9,0.1,16.3,7.1,16.2,15.6l-0.7,70.5c-0.1,8.5-7.5,15.4-16.5,15.3h0
			c-9-0.1-16.3-7.1-16.2-15.6l0.7-70.5C716.5,664,724,657.1,732.9,657.2z"/>
	</g>
</g>
<g id="Layer_2">
	<g id="Layer_24">
	</g>
	<g>
		<path class="st10" d="M303,496h-23c-6.6,0-12-5.4-12-12v-89c0-6.6,5.4-12,12-12h23c6.6,0,12,5.4,12,12v89
			C315,490.6,309.6,496,303,496z"/>
		<path id="whole-blub_00000021110474655140499420000008311270156920761776_" class="st11" d="M338,445l-94.5,1.6
			c-1.8,0-3.3-1.4-3.4-3.3l-0.4-24.7c0-1.8,1.4-3.3,3.3-3.4l94.5-1.6c1.8,0,3.3,1.4,3.4,3.3l0.4,24.7C341.3,443.4,339.8,445,338,445
			z M262,487.8c0,0,7.5,15.5,16.4,15.4l26.7-0.5c8.8-0.2,15.8-15.9,15.8-15.9 M327.1,475.2l-0.3-17.2c0-1.3-1.1-2.3-2.4-2.3
			l-67.1,1.2c-1.3,0-2.3,1.1-2.3,2.4l0.3,17.2c0,1.3,1.1,2.3,2.4,2.3l67.1-1.2C326.1,477.5,327.2,476.4,327.1,475.2z M290.1,405.4
			c-57,1-91.8-44.1-93.1-120.5c-1.3-77.4,49.6-185.1,87.8-185.7c38.3-0.7,92.8,105.1,94.2,182.6
			C380.3,358.2,347.1,404.5,290.1,405.4z M285,113.4c-22.8,0.4-74.9,90.2-73.5,171.3c1.2,68.6,29.7,107.4,78.3,106.6
			s75.8-40.6,74.6-109.2C363,201,307.8,113,285,113.4z"/>
		<path id="base_00000177477466107646107310000017213867927558693285_" class="st11" d="M338,445l-94.5,1.6c-1.8,0-3.3-1.4-3.4-3.3
			l-0.4-24.7c0-1.8,1.4-3.3,3.3-3.4l94.5-1.6c1.8,0,3.3,1.4,3.4,3.3l0.4,24.7C341.3,443.4,339.8,445,338,445z M262,487.8
			c0,0,7.5,15.5,16.4,15.4l26.7-0.5c8.8-0.2,15.8-15.9,15.8-15.9 M327.1,475.2l-0.3-17.2c0-1.3-1.1-2.3-2.4-2.3l-67.1,1.2
			c-1.3,0-2.3,1.1-2.3,2.4l0.3,17.2c0,1.3,1.1,2.3,2.4,2.3l67.1-1.2C326.1,477.5,327.2,476.4,327.1,475.2z"/>
		<g id="blub-fill_00000129924663641586770560000001357273358231327640_">
			<path class="st24" d="M283.5,108.4c-24.1,0.4-79.4,94.6-77.9,179.5c1.2,71.8,31.5,112.5,83,111.7c51.5-0.9,80.3-42.6,79-114.5
				C366.1,200.2,307.6,108,283.5,108.4z"/>
		</g>
		<path id="blub-stroke_00000111879847154006612180000016383104633415520656_" class="st11" d="M290.1,405.4
			c-57,1-91.8-44.1-93.1-120.5c-1.3-77.4,49.6-185.1,87.8-185.7c38.3-0.7,92.8,105.1,94.2,182.6
			C380.3,358.2,347.1,404.5,290.1,405.4z M285,113.4c-22.8,0.4-74.9,90.2-73.5,171.3c1.2,68.6,29.7,107.4,78.3,106.6
			s75.8-40.6,74.6-109.2C363,201,307.8,113,285,113.4z"/>
		<path class="st12" d="M322.8,172.3c6.7,18.2,12,42.8-11.5,42.4c-8.3-0.1-16.2-12.6-20.7-31.5c-4.9-20.9-6-37.3,4.9-41
			C305,138.9,316.1,154.2,322.8,172.3z"/>
	</g>
	
		<text transform="matrix(0.9999 -1.728000e-02 1.728000e-02 0.9999 596.48 1757.6641)" style="fill:#707070; font-family:'Poppins-ExtraBold'; font-size:194.121px;">                    </text>
	<g id="Layer_16">
	</g>
	<g>
		<path class="st10" d="M564.3,630h-16.5c-4.3,0-7.7-3.5-7.7-7.7v-44.5c0-4.3,3.5-7.7,7.7-7.7h16.5c4.3,0,7.7,3.5,7.7,7.7v44.5
			C572,626.5,568.5,630,564.3,630z"/>
		<path class="st25" d="M556.5,289C484,289.3,451,350.6,451,407.4c0,5.4,0.3,10.8,0.9,16.2c2.9,26.1,12.8,51.8,30.3,70.9
			c6.7,8.5,14.2,16.4,21,23.1c4.5,4.3,8.7,8.1,12.2,11.3c6.5,5.6,10.9,9,11,9.1l2.2,1.7v33.8l9.7,0l34.8,0l11.5,0l0.1-11.5v-22.3
			l2.2-1.7c0.2-0.1,4.7-3.6,11.2-9.3c3.6-3.2,7.9-7.1,12.4-11.5c7.4-7.2,15.5-15.9,22.6-25.3c16.2-19,25.4-43.9,28-69
			c0.5-5.1,0.8-10.3,0.8-15.4C662,350.6,629,289.3,556.5,289z"/>
		<path class="st11" d="M581.6,588.1L572,588l-33-0.3l-9.3-0.1c-1.8,0-3.3,1.4-3.3,3.2l0,4.2c0,1.8,1.4,3.3,3.2,3.3l9.4,0.1l33,0.3
			l9.5,0.1c1.8,0,3.3-1.4,3.3-3.2l0-4.2C584.8,589.6,583.4,588.1,581.6,588.1z"/>
		<path class="st11" d="M574.5,607.4l-2.6,0L538,607v0.1l-0.8,0c-1.6,0-3,1.3-3,2.9l0,4.7c0,1.6,1.3,3,2.9,3l0.9,0v0.1l33.9,0.3
			l2.5,0c1.7,0,3.1-1.3,3.1-3l0-4.8C577.5,608.8,576.2,607.4,574.5,607.4z"/>
		<path class="st11" d="M571.2,625.1l-0.9,0l-29.6-0.3c-0.1,0-0.2,0-0.3,0c-1.5,0.1-2.8,1.4-2.8,3l0,3.6c0,1.7,1.3,3,3,3l3.8,0
			c1.7,0,3,1.4,3,3c0,1.7,1.3,3,3,3l10.9,0.1c1.7,0,3-1.3,3-3c0-1.7,1.4-3,3-3l3.8,0c1.7,0,3-1.3,3-3l0-3.6
			C574.2,626.4,572.9,625.1,571.2,625.1z"/>
		<path class="st11" d="M642.4,321.3c-20.3-26-49.5-40-84.3-40.5l0,0c-34.9-0.2-64.3,13.2-85.1,38.8c-18.3,22.5-28.6,52.9-28.9,85.5
			c-0.2,25.7,5.7,50.2,17.1,70.6c15.8,30.4,47.8,57.4,56.5,64.4l-0.3,25.9l-0.1,12.6l21.8,0.2l33,0.3l21.6,0.2l0.1-13.3l0.2-25.2
			c9.5-7.4,46.4-37.5,61.1-70.4c9.3-18.7,14.3-40.3,14.6-63.1C669.9,374.7,660.3,344.2,642.4,321.3z M655.5,421.5
			c-2.5,23.9-11.2,47.5-26.6,65.5c-6.7,8.9-14.4,17.1-21.4,24c-4.3,4.2-8.3,7.9-11.8,10.9c-6.2,5.5-10.5,8.7-10.7,8.9l-2.1,1.6v21.2
			l-0.1,10.9l-10.9,0l-33,0l-9.2,0v-32.1l-2.1-1.6c-0.2-0.1-4.3-3.3-10.5-8.7c-3.4-3-7.4-6.6-11.6-10.7c-6.5-6.3-13.6-13.8-20-21.9
			c-16.6-18.1-26-42.5-28.8-67.3c-0.6-5.1-0.9-10.3-0.9-15.4c0-53.9,31.3-112.1,100.1-112.4c68.8,0.3,100.1,58.4,100.1,112.4
			C656.3,411.7,656,416.6,655.5,421.5z"/>
		<ellipse class="st26" cx="600.2" cy="379.1" rx="29.8" ry="35.7"/>
	</g>
	<g class="st27">
		<path class="st5" d="M594.4,83.8v36.3h-65.7v28.9h48.5v34.7h-48.5v64.3H483V83.8H594.4z"/>
		<path class="st5" d="M659.4,83.8v164.3h-45.7V83.8H659.4z"/>
		<path class="st5" d="M837.7,248.1H792l-60.8-91.8v91.8h-45.7V83.8h45.7l60.8,93v-93h45.7V248.1z"/>
		<path class="st5" d="M974.1,94.2c13,6.9,23,16.6,29.9,29c7,12.4,10.5,26.6,10.5,42.6c0,15.8-3.5,30-10.6,42.4
			c-7.1,12.4-17.1,22.2-30.1,29.2c-13,7.1-28,10.6-45.1,10.6h-65V83.8h65C946,83.8,961.1,87.3,974.1,94.2z M956.7,196.8
			c7.6-7.3,11.4-17.6,11.4-31c0-13.5-3.8-24-11.4-31.3c-7.6-7.4-18.1-11.1-31.5-11.1h-15.8v84.3h15.8
			C938.6,207.8,949.1,204.1,956.7,196.8z"/>
		<path class="st5" d="M1228.9,83.8l-57.8,112.1v52.2h-45.9v-52.2l-57.8-112.1h52.2l28.9,63.4l28.9-63.4H1228.9z"/>
		<path class="st5" d="M1279.2,238.9c-12.9-7.2-23.1-17.2-30.6-30.1c-7.5-12.8-11.3-27.3-11.3-43.5c0-16.2,3.8-30.6,11.3-43.5
			c7.5-12.8,17.7-22.8,30.6-29.9c12.9-7.1,27-10.7,42.4-10.7c15.5,0,29.7,3.6,42.5,10.7c12.8,7.1,23,17.1,30.4,29.9
			c7.5,12.8,11.2,27.3,11.2,43.5c0,16.2-3.7,30.6-11.2,43.5c-7.5,12.8-17.6,22.8-30.5,30.1c-12.9,7.2-27,10.8-42.4,10.8
			C1306.2,249.7,1292.1,246.1,1279.2,238.9z M1349.2,195.9c6.8-7.6,10.1-17.8,10.1-30.5c0-13-3.4-23.3-10.1-30.9
			c-6.8-7.5-16-11.3-27.6-11.3c-11.8,0-21.1,3.8-27.7,11.3c-6.7,7.5-10,17.8-10,30.9c0,12.9,3.3,23.1,10,30.6
			c6.7,7.5,15.9,11.3,27.7,11.3C1333.3,207.3,1342.5,203.5,1349.2,195.9z"/>
		<path class="st5" d="M1471,83.8v95.3c0,8.9,2.1,15.7,6.2,20.5c4.1,4.8,10.4,7.2,18.8,7.2c8.4,0,14.7-2.4,19-7.3
			c4.3-4.9,6.4-11.7,6.4-20.4V83.8h45.7v95.3c0,15.1-3.2,27.9-9.6,38.6c-6.4,10.6-15,18.6-26,24c-10.9,5.4-23.1,8-36.5,8
			c-13.4,0-25.3-2.7-35.8-8c-10.5-5.4-18.7-13.3-24.7-23.9c-6-10.6-9-23.5-9-38.7V83.8H1471z"/>
		<path class="st5" d="M1675.3,248.1l-32.6-60.6h-4.9v60.6h-45.7V83.8h72c13.2,0,24.4,2.3,33.6,6.9c9.2,4.6,16.1,10.9,20.7,18.9
			c4.7,8,7,17,7,26.9c0,11.2-3.1,21-9.2,29.5c-6.1,8.5-15.1,14.5-26.9,18.1l37,64.1H1675.3z M1637.8,156.3h22.6
			c6.2,0,10.9-1.5,14-4.4c3.1-2.9,4.7-7.2,4.7-12.8c0-5.3-1.6-9.4-4.8-12.5c-3.2-3-7.8-4.5-13.9-4.5h-22.6V156.3z"/>
	</g>
	<g class="st27">
		<path class="st12" d="M1173.4,298.4v196.7h-54.7V298.4H1173.4z"/>
		<path class="st12" d="M1336.8,310.8c15.5,8.3,27.5,19.9,35.9,34.7c8.4,14.9,12.6,31.9,12.6,51.1c0,19-4.2,35.9-12.7,50.8
			c-8.5,14.9-20.5,26.6-36,35c-15.5,8.5-33.5,12.7-54,12.7h-77.8V298.4h77.8C1303.1,298.4,1321.2,302.5,1336.8,310.8z M1316,433.7
			c9.1-8.7,13.7-21.1,13.7-37.1c0-16.2-4.6-28.7-13.7-37.5c-9.1-8.8-21.7-13.3-37.7-13.3h-19v101h19
			C1294.3,446.8,1306.9,442.5,1316,433.7z"/>
		<path class="st12" d="M1464.4,342.2v32.1h62.8v41.6h-62.8v35.4h71.1v43.8h-125.8V298.4h125.8v43.8H1464.4z"/>
		<path class="st12" d="M1687,463h-69.8l-10.6,32.1h-57.5l71.7-196.7h63.1l71.4,196.7h-57.8L1687,463z M1673.4,421.2l-21.2-63.6
			l-20.9,63.6H1673.4z"/>
	</g>
	<g>
		<polygon class="st21" points="1338.6,883.4 1338.6,864 1303.4,864.1 1303.4,883.4 1303.4,886.6 1303.4,893.8 1309.4,893.8 
			1309.4,916.8 1325.1,916.8 1332.6,916.8 1332.6,893.8 1332.8,893.8 1338.6,893.8 1338.6,883.4 		"/>
		<path class="st5" d="M1354.3,856h-15.8h-33.9h-18c-0.8,0-1.5,1-1.5,2.2v4.3c0,1.4,0.8,2.6,1.8,2.6l17.7,0l33.9-0.1l15.5,0
			c1.1,0,2-1.3,2-2.9v-3.5C1356,857.1,1355.2,856,1354.3,856z"/>
		<path class="st5" d="M1346.6,873.1h-4.1h-2.8h-35.2h-9.6c-0.9,0-1.6,0.7-1.6,1.6v6.5c0,1.2,1,2.1,2.1,2.1h9.1h33.3h1.9h6.7
			c1.8,0,3.2-1.4,3.2-3.2V876C1349.5,874.4,1348.2,873.1,1346.6,873.1z"/>
		<path class="st5" d="M1341,891.9h-1.4h-5.8h-0.3h-23.2h-6h-1.3c-1.2,0-2.2,1-2.2,2.2v5.6c0,1.3,1.1,2.4,2.4,2.4h7.2h18.7h4.4h7.7
			c0.7,0,1.4-0.6,1.4-1.4v-7.3C1342.6,892.6,1341.9,891.9,1341,891.9z"/>
		<path class="st5" d="M1338.6,908.8h-5h-7.5h-15.7h-4.8c-0.7,0-1.2,0.6-1.2,1.2v6.8c0,0.7,0.6,1.3,1.3,1.3h8.2v4
			c0,1,0.8,1.9,1.9,1.9h3.5l0,0h9.7c0.7,0,1.3-0.6,1.3-1.3v-4.5h7.6c1,0,1.9-0.8,1.9-1.9v-6.4
			C1339.6,909.3,1339.1,908.8,1338.6,908.8z"/>
		<path class="st28" d="M1346.5,583.7c-22.5-14.3-25.9-21.5-33.8-20.8c-2.5,0.2-3.3,1.1-19.9,15.7c-3.5,3-6.6,5.8-9.3,8.1
			c-45.5,18-66.7,69-66.7,109.7c0,4.8,0.3,9.6,0.9,14.4c2.8,23.1,12.4,45.8,29.4,62.7c6.5,7.5,13.8,14.5,20.4,20.4
			c4.3,3.8,8.4,7.2,11.9,10c6.3,5,10.6,8,10.7,8.1l2.1,1.5v29.9l54.4-0.1v-29.9l2.1-1.5c0.2-0.1,4.5-3.2,10.9-8.3
			c3.5-2.8,7.7-6.3,12.1-10.2c7.2-6.4,15-14.1,21.9-22.4c15.7-16.8,24.6-38.8,27.2-61.1c0.5-4.5,0.8-9.1,0.8-13.6
			C1421.7,653.1,1398.1,598.2,1346.5,583.7z"/>
		<circle class="st29" cx="1357" cy="647" r="25"/>
	</g>
</g>
<g id="Layer_17">
</g>
<g id="Layer_15">
</g>
<g id="Layer_1" class="st0">
</g>
</svg>
