<?xml version="1.0" encoding="UTF-8"?>
<svg id="Layer_1_copy" data-name="Layer 1 copy" xmlns="http://www.w3.org/2000/svg" viewBox="0 0 811 607.5">
  <defs>
    <style>
      .cls-1 {
        fill: #939393;
      }

      .cls-2 {
        fill: #e07ec2;
      }

      .cls-3 {
        isolation: isolate;
      }

      .cls-4 {
        fill: #3e3e3e;
      }

      .cls-5 {
        fill: #4d4d4d;
      }

      .cls-6 {
        fill: #ddedeb;
        opacity: .45;
      }

      .cls-7 {
        fill: #e07e1b;
      }

      .cls-8 {
        fill: #662d91;
      }

      .cls-9 {
        fill: #333;
      }

      .cls-10 {
        fill: #f7efe7;
      }

      .cls-11 {
        fill: gray;
      }

      .cls-12 {
        fill: #efcee5;
      }

      .cls-13 {
        fill: #fce0bb;
      }

      .cls-14 {
        fill: #a0249d;
      }

      .cls-15 {
        fill: #f9de6b;
        stroke: #3e3e3e;
        stroke-miterlimit: 10;
        stroke-width: 8px;
      }

      .cls-16 {
        fill: #b069b2;
      }

      .cls-17 {
        fill: #fbb03b;
      }

      .cls-18 {
        fill: #777776;
      }

      .cls-19 {
        fill: #666;
      }
    </style>
  </defs>
  <g id="Layer_9" data-name="Layer 9">
    <g>
      <polygon class="cls-19" points="512.87 529.11 512.87 516.25 489.5 516.33 489.5 529.11 489.5 531.26 489.5 535.99 493.5 535.99 493.5 551.29 503.9 551.29 508.87 551.29 508.87 535.99 509.03 535.99 512.87 535.99 512.87 529.11 512.87 529.11"/>
      <path class="cls-9" d="m523.26,510.93h-44.94c-.55,0-1,.64-1,1.44v2.84c0,.95.53,1.72,1.19,1.72l11.75-.02,22.5-.04,10.3-.02c.74,0,1.34-.87,1.34-1.94v-2.31c0-.92-.52-1.66-1.15-1.66Z"/>
      <path class="cls-9" d="m518.14,522.26h-34.35c-.59,0-1.07.48-1.07,1.07v4.33c0,.78.63,1.42,1.42,1.42h33.84c1.17,0,2.11-.95,2.11-2.11v-2.77c0-1.07-.87-1.94-1.94-1.94Z"/>
      <path class="cls-9" d="m514.49,534.73h-25.18c-.82,0-1.48.66-1.48,1.48v3.74c0,.88.72,1.6,1.6,1.6h25.22c.5,0,.9-.4.9-.9v-4.87c0-.58-.47-1.05-1.05-1.05Z"/>
      <path class="cls-9" d="m512.85,545.98h-21.87c-.45,0-.81.36-.81.81v4.5c0,.46.38.84.84.84h5.43v2.62c0,.69.56,1.24,1.24,1.24h8.74c.47,0,.85-.38.85-.85v-3.01h5.02c.69,0,1.25-.56,1.25-1.25v-4.21c0-.38-.31-.69-.69-.69Z"/>
      <path class="cls-15" d="m518.14,330.35c-14.91-9.47-17.2-14.28-22.44-13.77-1.68.16-2.16.72-13.22,10.39-2.3,2.01-4.37,3.82-6.14,5.36-30.18,11.93-44.24,45.74-44.23,72.78,0,3.16.19,6.35.58,9.53,1.86,15.3,8.24,30.39,19.52,41.61,4.34,5.01,9.13,9.63,13.54,13.53,2.87,2.54,5.58,4.78,7.88,6.61,4.16,3.31,7,5.29,7.11,5.37l1.42.98v19.83l36.09-.04v-19.83l1.42-.98c.11-.08,3-2.1,7.23-5.48,2.34-1.87,5.09-4.15,8-6.75,4.77-4.25,9.97-9.35,14.53-14.84,10.44-11.16,16.33-25.76,18.02-40.53.35-3.01.52-6.02.52-9.02,0-28.73-15.67-65.1-49.83-74.75Z"/>
      <circle class="cls-10" cx="525.07" cy="372.33" r="16.58"/>
    </g>
  </g>
  <g id="Layer_10" data-name="Layer 10">
    <g>
      <rect class="cls-18" x="75.77" y="385.21" width="20.71" height="38.83" rx="7.73" ry="7.73"/>
      <path class="cls-8" d="m86.44,203.37c-46.91.19-68.27,39.85-68.27,76.63,0,3.49.19,7,.58,10.5,1.87,16.87,8.28,33.5,19.62,45.86,4.36,5.52,9.18,10.62,13.61,14.92,2.89,2.8,5.6,5.27,7.92,7.28,4.18,3.65,7.04,5.83,7.15,5.92l1.43,1.08v21.86h6.28s22.5-.03,22.5-.03h7.41s.07-7.42.07-7.42v-14.45l1.42-1.08c.11-.08,3.02-2.32,7.26-6.04,2.35-2.06,5.11-4.58,8.04-7.44,4.79-4.69,10.02-10.3,14.61-16.36,10.49-12.3,16.41-28.4,18.11-44.68.35-3.32.52-6.64.52-9.94,0-36.78-21.36-76.44-68.27-76.61Z"/>
      <path class="cls-4" d="m102.68,396.93l-6.2-.06-21.35-.21-6-.06c-1.16-.01-2.11.92-2.12,2.08l-.03,2.7c-.01,1.16.92,2.11,2.08,2.12l6.06.06,21.35.21,6.14.06c1.16.01,2.11-.92,2.12-2.08l.03-2.7c.01-1.16-.92-2.11-2.08-2.12Z"/>
      <path class="cls-4" d="m98.09,409.4l-1.71-.02-21.91-.21v.09h-.49c-1.06-.02-1.93.84-1.94,1.9l-.03,3.05c-.01,1.06.84,1.93,1.9,1.94h.56v.1l21.91.21,1.64.02c1.09.01,1.98-.86,1.99-1.95l.03-3.13c.01-1.09-.86-1.98-1.95-1.99Z"/>
      <path class="cls-4" d="m95.97,420.83h-.57s-19.14-.19-19.14-.19c-.06,0-.12.01-.18.02-1,.08-1.79.9-1.8,1.92l-.02,2.31c-.01,1.08.85,1.96,1.93,1.97l2.43.02c1.08.01,1.94.89,1.93,1.97-.01,1.08.85,1.96,1.93,1.97l7.04.07c1.08.01,1.96-.85,1.97-1.93.01-1.08.89-1.94,1.97-1.93l2.43.02c1.08.01,1.96-.85,1.97-1.93l.02-2.31c.01-1.08-.85-1.96-1.93-1.97Z"/>
      <path class="cls-4" d="m142.04,224.27c-13.14-16.83-32.01-25.88-54.57-26.19h-.02c-22.57-.13-41.61,8.56-55.08,25.13-11.84,14.57-18.48,34.21-18.68,55.3-.16,16.66,3.71,32.49,11.05,45.71,10.25,19.65,30.91,37.13,36.54,41.67l-.16,16.73-.08,8.16,14.1.12,21.35.18,13.97.12.08-8.58.16-16.3c6.14-4.78,30.03-24.29,39.53-45.58,6-12.08,9.28-26.1,9.42-40.82.2-21.08-6.05-40.84-17.6-55.65Zm8.46,64.82c-1.62,15.44-7.23,30.72-17.18,42.39-4.35,5.74-9.31,11.07-13.86,15.52-2.78,2.72-5.4,5.11-7.63,7.06-4.03,3.53-6.79,5.65-6.89,5.73l-1.35,1.03v13.71l-.07,7.04h-7.03s-21.35.03-21.35.03h-5.96s0-20.73,0-20.73l-1.36-1.03c-.1-.08-2.81-2.15-6.78-5.61-2.19-1.91-4.77-4.25-7.51-6.91-4.2-4.08-8.78-8.92-12.91-14.16-10.76-11.73-16.85-27.51-18.62-43.52-.37-3.32-.55-6.66-.55-9.97,0-34.9,20.27-72.54,64.78-72.72,44.51.17,64.78,37.8,64.78,72.7,0,3.13-.17,6.29-.49,9.43Z"/>
      <ellipse class="cls-6" cx="114.74" cy="261.68" rx="19.25" ry="23.13"/>
    </g>
  </g>
  <g id="Layer_11" data-name="Layer 11">
    <g>
      <rect class="cls-18" x="635.94" y="408.99" width="23.08" height="27.34"/>
      <rect class="cls-18" x="639.05" y="410.29" width="16.84" height="36.6"/>
      <path id="blub" class="cls-11" d="m666.6,425.43h-38.08c-1.78,0-3.23-1.44-3.23-3.23v-1.76c0-1.78,1.44-3.23,3.23-3.23h38.08c1.78,0,3.23,1.44,3.23,3.23v1.76c0,1.78-1.44,3.23-3.23,3.23Zm-4.63,6.81h-28.81c-1.78,0-3.23,1.44-3.23,3.23v1.76c0,1.78,1.44,3.23,3.23,3.23h28.81c1.78,0,3.23-1.44,3.23-3.23v-1.76c0-1.78-1.44-3.23-3.23-3.23Zm-5.25,12.23h-18.31c-1.78,0-3.23,1.44-3.23,3.23v1.76c0,1.78,1.44,3.23,3.23,3.23h18.31c1.78,0,3.23-1.44,3.23-3.23v-1.76c0-1.78-1.44-3.23-3.23-3.23Zm-5.84,8.22h-6.63c-1.34,0-2.43,1.09-2.43,2.43v.31c0,1.34,1.09,2.43,2.43,2.43h6.63c1.34,0,2.43-1.09,2.43-2.43v-.31c0-1.34-1.09-2.43-2.43-2.43Zm-32.73-42.33v-29.67c-9.04-7.23-50.73-42.29-50.73-74.25,0-44.46,35.8-80.64,79.8-80.64,44,0,79.79,36.17,79.79,80.64,0,31.89-41.55,66.96-50.56,74.19v29.66s-58.3.07-58.3.07Zm29.07-176.17c-39.43,0-71.51,32.42-71.51,72.26,0,30.92,48.6,68.48,49.09,68.86l1.64,1.26v25.41s41.72-.05,41.72-.05v-25.41s1.64-1.26,1.64-1.26c.49-.38,48.92-37.95,48.92-68.81,0-39.84-32.08-72.26-71.5-72.26Z"/>
      <path id="blub-2" data-name="blub" class="cls-5" d="m666.85,425.43h-38.59c-1.64,0-2.97-1.33-2.97-2.97v-2.27c0-1.64,1.33-2.97,2.97-2.97h38.59c1.64,0,2.97,1.33,2.97,2.97v2.27c0,1.64-1.33,2.97-2.97,2.97Zm-4.63,6.81h-29.32c-1.64,0-2.97,1.33-2.97,2.97v2.27c0,1.64,1.33,2.97,2.97,2.97h29.32c1.64,0,2.97-1.33,2.97-2.97v-2.27c0-1.64-1.33-2.97-2.97-2.97Zm-5.25,12.23h-18.82c-1.64,0-2.97,1.33-2.97,2.97v2.27c0,1.64,1.33,2.97,2.97,2.97h18.82c1.64,0,2.97-1.33,2.97-2.97v-2.27c0-1.64-1.33-2.97-2.97-2.97Zm-6.1,8.22h-6.63c-1.34,0-2.43,1.09-2.43,2.43v.31c0,1.34,1.09,2.43,2.43,2.43h6.63c1.34,0,2.43-1.09,2.43-2.43v-.31c0-1.34-1.09-2.43-2.43-2.43Zm-32.73-42.33v-29.67c-9.04-7.23-50.73-42.29-50.73-74.25,0-44.46,35.8-80.64,79.8-80.64,44,0,79.79,36.17,79.79,80.64,0,31.89-41.55,66.96-50.56,74.19v29.66s-58.3.07-58.3.07Zm29.07-176.17c-39.43,0-71.51,32.42-71.51,72.26,0,30.92,48.6,68.48,49.09,68.86l1.64,1.26v25.41s41.72-.05,41.72-.05v-25.41s1.64-1.26,1.64-1.26c.49-.38,48.92-37.95,48.92-68.81,0-39.84-32.08-72.26-71.5-72.26Z"/>
      <path class="cls-14" d="m647.61,228.39c-42.41,0-76.91,34.86-76.91,77.72,0,33.26,52.27,73.66,52.8,74.07l1.77,1.35v27.33s44.87-.05,44.87-.05v-27.33s1.76-1.35,1.76-1.35c.53-.4,52.62-40.81,52.62-74.01,0-42.85-34.5-77.72-76.91-77.72Z"/>
      <rect class="cls-4" x="641.82" y="452.68" width="11.48" height="5.16" rx="1.66" ry="1.66"/>
      <path class="cls-4" d="m635.17,450.03c0,1.47,1.19,2.66,2.66,2.66h3.98s11.48,0,11.48,0h3.98c1.47,0,2.66-1.19,2.66-2.66v-2.9c0-1.47-1.19-2.66-2.66-2.66h-19.45c-1.47,0-2.66,1.19-2.66,2.66v2.9Z"/>
      <rect class="cls-4" x="629.92" y="432.24" width="35.27" height="8.22" rx="2.92" ry="2.92"/>
      <rect class="cls-4" x="625.29" y="417.21" width="44.53" height="8.22" rx="2.88" ry="2.88"/>
      <path class="cls-4" d="m647.21,225.81c-44,0-79.8,36.17-79.8,80.64,0,31.96,41.69,67.02,50.73,74.25v29.67s58.3-.07,58.3-.07v-29.66c9.01-7.23,50.56-42.29,50.56-74.19,0-44.46-35.79-80.64-79.79-80.64Zm22.58,149.44l-1.64,1.26v25.41s-41.72.05-41.72.05v-25.41s-1.64-1.26-1.64-1.26c-.49-.38-49.09-37.94-49.09-68.86,0-39.84,32.08-72.26,71.51-72.26,39.43,0,71.5,32.42,71.5,72.26,0,30.86-48.43,68.43-48.92,68.81Z"/>
      <ellipse class="cls-16" cx="675.54" cy="274.66" rx="19.65" ry="19.85"/>
    </g>
  </g>
  <g id="Layer_12" data-name="Layer 12">
    <g>
      <g>
        <rect class="cls-1" x="266.51" y="465.04" width="31.74" height="43.59"/>
        <g>
          <path class="cls-9" d="m260.57,503.45h42.71c.98,0,1.77-.96,1.77-2.15v-2.51c0-1.19-.79-2.15-1.77-2.15h-42.71c-.98,0-1.77.96-1.77,2.15v2.51c0,1.19.79,2.15,1.77,2.15Z"/>
          <path class="cls-9" d="m260.57,491.61h42.71c.98,0,1.77-.71,1.77-1.59v-3.33c0-.88-.79-1.59-1.77-1.59h-42.71c-.98,0-1.77.71-1.77,1.59v3.33c0,.88.79,1.59,1.77,1.59Z"/>
          <path class="cls-9" d="m274.54,521.13h15.92c.61,0,1.18-.28,1.55-.76l7.21-9.35c.97-1.25.05-3.05-1.55-3.05h-30.58c-1.62,0-2.52,1.83-1.53,3.08l7.46,9.35c.37.46.93.73,1.53.73Z"/>
          <path class="cls-9" d="m260.57,480.14h42.71c.98,0,1.77-.7,1.77-1.55v-3.5c0-.86-.79-1.55-1.77-1.55h-42.71c-.98,0-1.77.7-1.77,1.55v3.5c0,.86.79,1.55,1.77,1.55Z"/>
        </g>
        <path class="cls-9" d="m298.02,465.15h-30.42c-30.1,0-30.26-35.57-30.26-47.58l-12.15-119.21v-.19c0-26.71,19.02-48.45,42.41-48.45h30.42c23.38,0,42.41,21.73,42.41,48.45l-.02.4-12.94,119.01c-.02,24.73-3.64,47.57-29.45,47.57Zm-65.34-167.17l12.15,119.21v.19c0,27.85,7.02,40.28,22.76,40.28h30.42c16.21,0,21.95-10.54,21.95-40.28l.02-.41,12.94-119.01c-.09-22.49-15.72-40.75-34.91-40.75h-30.42c-19.2,0-34.83,18.27-34.91,40.77Z"/>
        <g>
          <path class="cls-2" d="m321.95,418.24l13.71-121.98c-.1-23.05-16.65-41.77-36.99-41.77h-32.23c-20.34,0-36.9,18.73-36.99,41.79l12.87,122.19v.2c0,28.55,7.44,41.28,24.12,41.28h32.23c17.17,0,23.26-10.8,23.26-41.28l.02-.42Z"/>
          <path class="cls-9" d="m327.21,418.04l12.94-118.86.02-.4c0-26.68-19.02-48.38-42.41-48.38h-30.42c-23.38,0-42.41,21.7-42.41,48.38v.19l12.15,119.06c0,11.99.16,47.52,30.26,47.52h30.42c25.81,0,29.43-22.8,29.45-47.5Zm-29.45,40.02h-30.42c-15.74,0-22.76-12.41-22.76-40.22v-.19l-12.15-119.05c.09-22.47,15.71-40.71,34.91-40.71h30.42c19.2,0,34.82,18.24,34.91,40.7l-12.94,118.85-.02.4c0,29.7-5.74,40.22-21.95,40.22Z"/>
        </g>
      </g>
      <path class="cls-12" d="m301.92,331.04l-4.3-.23c-4.73-.25-6.9-5.43-6.57-11.61l-.14-24.4c.33-6.17,4.47-11.02,9.21-10.77l4.3.23c4.73.25,8.34,5.51,8.01,11.69l-2.06,25.22c-.35,6.55-3.7,10.12-8.44,9.87Z"/>
    </g>
  </g>
  <g id="Layer_13" data-name="Layer 13">
    <g>
      <rect class="cls-18" x="383.74" y="290.83" width="45.5" height="57.33"/>
      <path id="blub-3" data-name="blub" class="cls-4" d="m420.96,361.04h-30.79c-.99,0-1.91-.49-2.46-1.31l-7.15-10.73c-1.31-1.96.1-4.59,2.46-4.59h45.09c2.36,0,3.76,2.63,2.46,4.59l-7.15,10.73c-.55.82-1.47,1.31-2.46,1.31Zm8.51-30.49h-47.81c-2.3,0-4.16,1.86-4.16,4.16h0c0,2.3,1.86,4.16,4.16,4.16h47.81c2.3,0,4.16-1.86,4.16-4.16h0c0-2.3-1.86-4.16-4.16-4.16Zm0-13.86h-47.81c-2.3,0-4.16,1.86-4.16,4.16h0c0,2.3,1.86,4.16,4.16,4.16h47.81c2.3,0,4.16-1.86,4.16-4.16h0c0-2.3-1.86-4.16-4.16-4.16Zm2.54-13.86h-50.35c-2.3,0-4.16,1.86-4.16,4.16h0c0,2.3,1.86,4.16,4.16,4.16h47.81c2.3,0,4.16-1.86,4.16-4.16v-2.54c0-.89-.72-1.61-1.61-1.61Zm6.35-5.93h-65.13v-64.96c-28.91-9.81-50.36-31.54-50.36-51.45,0-18.27,38.65-48.5,82.7-48.5s82.68,30.23,82.68,48.5c0,19.73-21.25,41.39-49.89,51.29v65.12Zm-56.82-8.31h48.5v-62.87l2.92-.91c21.45-6.7,44.52-24.12,46.79-41.54h-148.39c2.27,17.59,25.57,35.05,47.24,41.67l2.94.9v62.75Zm-48.65-113.63h145.33c-7.18-13.31-36.18-34.64-72.65-34.64s-65.5,21.34-72.68,34.64Z"/>
      <path class="cls-17" d="m480.19,180.46c0-9.4-13.88-22.69-34.1-31.21-11.54-5.25-25.38-8.93-40.52-8.93-16.97,0-32.32,4.62-44.61,10.89-17.83,8.5-29.74,20.54-29.74,29.25,0,.93.07,1.87.2,2.82h-.06c2.27,17.59,25.57,35.05,47.24,41.67l2.94.9v62.75h48.5v-62.87l2.92-.91c14.36-4.48,29.43-13.77,38.52-24.65,5.52-6.33,8.71-13.15,8.71-19.71Z"/>
      <ellipse class="cls-13" cx="444.27" cy="185.53" rx="21.48" ry="12.92"/>
    </g>
  </g>
  <g id="Layer_14" data-name="Layer 14">
    <g>
      <rect class="cls-18" x="174.97" y="182.81" width="28.95" height="69.61" rx="12" ry="12"/>
      <path id="whole-blub" class="cls-4" d="m216.81,221.02l-55.64.96c-1.82.03-3.34-1.43-3.37-3.26l-.22-12.65c-.03-1.82,1.43-3.34,3.26-3.37l55.64-.96c1.82-.03,3.34,1.43,3.37,3.26l.22,12.65c.03,1.82-1.43,3.34-3.26,3.37Zm-45.52,26.35s4.62,9.56,10.07,9.47l16.46-.28c5.45-.09,9.74-9.81,9.74-9.81m3.82-8.04l-.15-8.84c-.02-1.27-1.08-2.3-2.35-2.27l-39.56.68c-1.27.02-2.3,1.08-2.27,2.35l.15,8.84c.02,1.27,1.08,2.3,2.35,2.27l39.56-.68c1.27-.02,2.3-1.08,2.27-2.35Zm-22.83-42.05c-35.1.61-56.55-27.14-57.36-74.23-.82-47.71,30.53-114,54.1-114.41s57.2,64.76,58.02,112.47c.81,47.09-19.66,75.56-54.76,76.17Zm-3.11-179.91c-14.04.24-46.15,55.58-45.28,105.53.73,42.24,18.31,66.17,48.24,65.66,29.93-.52,46.67-25.04,45.94-67.28-.86-49.94-34.86-104.14-48.9-103.9Z"/>
      <path id="base" class="cls-4" d="m216.81,221.02l-55.64.96c-1.82.03-3.34-1.43-3.37-3.26l-.22-12.65c-.03-1.82,1.43-3.34,3.26-3.37l55.64-.96c1.82-.03,3.34,1.43,3.37,3.26l.22,12.65c.03,1.82-1.43,3.34-3.26,3.37Zm-45.52,26.35s4.62,9.56,10.07,9.47l16.46-.28c5.45-.09,9.74-9.81,9.74-9.81m3.82-8.04l-.15-8.84c-.02-1.27-1.08-2.3-2.35-2.27l-39.56.68c-1.27.02-2.3,1.08-2.27,2.35l.15,8.84c.02,1.27,1.08,2.3,2.35,2.27l39.56-.68c1.27-.02,2.3-1.08,2.27-2.35Z"/>
      <g id="blub-fill">
        <path class="cls-7" d="m184.49,13.68c-14.87.26-48.91,58.25-48,110.57.76,44.26,19.39,69.33,51.1,68.78,31.71-.55,49.46-26.25,48.7-70.51-.9-52.33-36.92-109.11-51.79-108.85Z"/>
      </g>
      <path id="blub-stroke" class="cls-4" d="m188.56,196.64c-35.1.61-56.55-27.14-57.36-74.23-.82-47.71,30.53-114,54.1-114.41s57.2,64.76,58.02,112.47c.81,47.09-19.66,75.56-54.76,76.17Zm-3.11-179.91c-14.04.24-46.15,55.58-45.28,105.53.73,42.24,18.31,66.17,48.24,65.66,29.93-.52,46.67-25.04,45.94-67.28-.86-49.94-34.86-104.14-48.9-103.9Z"/>
      <path class="cls-17" d="m208.71,53.03c4.12,11.24,7.41,26.35-7.07,26.09-5.09-.09-9.98-7.76-12.74-19.39-3.04-12.84-3.7-22.96,3.01-25.29,5.82-2.02,12.7,7.42,16.8,18.58Z"/>
    </g>
  </g>
  <g class="cls-3">
    <path class="cls-9" d="m316.73,37.02v14.82h-26.79v11.78h19.76v14.16h-19.76v26.22h-18.62V37.02h45.41Z"/>
    <path class="cls-9" d="m343.23,37.02v66.97h-18.62V37.02h18.62Z"/>
    <path class="cls-9" d="m415.91,104h-18.62l-24.79-37.43v37.43h-18.62V37.02h18.62l24.79,37.9v-37.9h18.62v66.97Z"/>
    <path class="cls-9" d="m471.53,41.25c5.29,2.82,9.36,6.76,12.21,11.83,2.85,5.07,4.28,10.86,4.28,17.38s-1.44,12.22-4.32,17.29c-2.88,5.07-6.97,9.04-12.25,11.92-5.29,2.88-11.42,4.32-18.38,4.32h-26.51V37.02h26.51c7.03,0,13.19,1.41,18.48,4.23Zm-7.08,41.85c3.1-2.98,4.65-7.19,4.65-12.63s-1.55-9.77-4.65-12.78c-3.1-3.01-7.38-4.51-12.83-4.51h-6.46v34.39h6.46c5.45,0,9.72-1.49,12.83-4.47Z"/>
    <path class="cls-9" d="m575.41,37.02l-23.56,45.69v21.28h-18.71v-21.28l-23.56-45.69h21.28l11.78,25.84,11.78-25.84h20.99Z"/>
    <path class="cls-9" d="m595.93,100.24c-5.26-2.94-9.42-7.03-12.49-12.25-3.07-5.22-4.61-11.13-4.61-17.72s1.53-12.49,4.61-17.72c3.07-5.23,7.23-9.29,12.49-12.21,5.26-2.91,11.02-4.37,17.29-4.37s12.11,1.46,17.34,4.37c5.23,2.91,9.36,6.98,12.4,12.21,3.04,5.22,4.56,11.13,4.56,17.72s-1.52,12.49-4.56,17.72c-3.04,5.23-7.19,9.31-12.45,12.25-5.26,2.95-11.02,4.42-17.29,4.42s-12.03-1.47-17.29-4.42Zm28.55-17.53c2.76-3.1,4.13-7.25,4.13-12.44s-1.38-9.52-4.13-12.59c-2.75-3.07-6.51-4.61-11.26-4.61s-8.58,1.54-11.31,4.61c-2.72,3.07-4.08,7.27-4.08,12.59s1.36,9.42,4.08,12.49c2.72,3.07,6.49,4.61,11.31,4.61s8.5-1.55,11.26-4.66Z"/>
    <path class="cls-9" d="m674.11,37.02v38.85c0,3.61.84,6.4,2.52,8.36,1.68,1.96,4.23,2.94,7.65,2.94s6-1,7.74-2.99c1.74-2,2.61-4.76,2.61-8.31v-38.85h18.62v38.85c0,6.14-1.3,11.39-3.9,15.72-2.6,4.34-6.13,7.6-10.59,9.79-4.46,2.18-9.42,3.28-14.87,3.28s-10.31-1.09-14.58-3.28c-4.28-2.19-7.63-5.43-10.07-9.74-2.44-4.31-3.66-9.56-3.66-15.77v-38.85h18.53Z"/>
    <path class="cls-9" d="m757.43,104l-13.3-24.7h-1.99v24.7h-18.62V37.02h29.36c5.38,0,9.94.93,13.68,2.8,3.74,1.87,6.56,4.43,8.46,7.7,1.9,3.26,2.85,6.92,2.85,10.97,0,4.56-1.25,8.57-3.75,12.02-2.5,3.45-6.16,5.91-10.97,7.36l15.11,26.12h-20.8Zm-15.29-37.43h9.21c2.53,0,4.43-.6,5.7-1.81,1.27-1.2,1.9-2.94,1.9-5.22,0-2.15-.65-3.85-1.95-5.08-1.3-1.23-3.18-1.85-5.65-1.85h-9.21v13.96Z"/>
  </g>
  <g>
    <path class="cls-17" d="m556.13,122.06v78.25h-21.76v-78.25h21.76Z"/>
    <path class="cls-17" d="m621.12,127c6.18,3.29,10.93,7.9,14.26,13.82,3.33,5.92,5,12.69,5,20.31s-1.68,14.28-5.05,20.2c-3.37,5.92-8.14,10.56-14.32,13.93-6.18,3.37-13.34,5.05-21.48,5.05h-30.97v-78.25h30.97c8.21,0,15.41,1.65,21.59,4.94Zm-8.27,48.9c3.62-3.48,5.44-8.4,5.44-14.76s-1.81-11.41-5.44-14.93c-3.63-3.51-8.62-5.27-14.99-5.27h-7.55v40.18h7.55c6.36,0,11.36-1.74,14.99-5.22Z"/>
    <path class="cls-17" d="m671.9,139.49v12.77h24.98v16.54h-24.98v14.1h28.31v17.43h-50.06v-78.25h50.06v17.43h-28.31Z"/>
    <path class="cls-17" d="m760.48,187.55h-27.75l-4.22,12.77h-22.87l28.53-78.25h25.09l28.42,78.25h-22.98l-4.22-12.77Zm-5.44-16.65l-8.44-25.31-8.32,25.31h16.76Z"/>
  </g>
</svg>