<?xml version="1.0" encoding="UTF-8"?>
<svg xmlns="http://www.w3.org/2000/svg" viewBox="0 0 1534.5 2129.5">
  <defs>
    <style>
      .cls-1 {
        fill: #939393;
      }

      .cls-2 {
        fill: #e07ec2;
      }

      .cls-3 {
        fill: #8ed6d6;
      }

      .cls-4 {
        isolation: isolate;
      }

      .cls-5 {
        fill: #3e3e3e;
      }

      .cls-6 {
        fill: #4d4d4d;
      }

      .cls-7 {
        fill: #ddedeb;
        opacity: .45;
      }

      .cls-8 {
        fill: #e07e1b;
      }

      .cls-9 {
        fill: #662d91;
      }

      .cls-10 {
        fill: #333;
      }

      .cls-11 {
        fill: gray;
      }

      .cls-12 {
        fill: #efcee5;
      }

      .cls-13 {
        fill: #fce0bb;
      }

      .cls-14 {
        fill: #a0249d;
      }

      .cls-15 {
        fill: #b069b2;
      }

      .cls-16 {
        fill: #7f7f7f;
      }

      .cls-17 {
        fill: #fbb03b;
      }

      .cls-18 {
        fill: #d2f7f7;
      }

      .cls-19 {
        fill: #777776;
      }

      .cls-20 {
        fill: #666;
      }
    </style>
  </defs>
  <g id="Layer_1" data-name="Layer 1">
    <g class="cls-4">
      <path class="cls-10" d="m226.5,214.02v37.44h-67.68v29.76h49.92v35.76h-49.92v66.24h-47.04v-169.2h114.72Z"/>
      <path class="cls-10" d="m293.45,214.02v169.2h-47.04v-169.2h47.04Z"/>
      <path class="cls-10" d="m477.05,383.22h-47.04l-62.64-94.56v94.56h-47.04v-169.2h47.04l62.64,95.76v-95.76h47.04v169.2Z"/>
      <path class="cls-10" d="m617.57,224.7c13.36,7.12,23.64,17.08,30.84,29.88,7.2,12.8,10.8,27.44,10.8,43.92s-3.64,30.88-10.92,43.68c-7.28,12.8-17.6,22.84-30.96,30.12-13.36,7.28-28.84,10.92-46.44,10.92h-66.96v-169.2h66.96c17.76,0,33.32,3.56,46.68,10.68Zm-17.88,105.72c7.84-7.52,11.76-18.16,11.76-31.92s-3.92-24.68-11.76-32.28c-7.84-7.6-18.64-11.4-32.4-11.4h-16.32v86.88h16.32c13.76,0,24.56-3.76,32.4-11.28Z"/>
      <path class="cls-10" d="m880.01,214.02l-59.52,115.44v53.76h-47.28v-53.76l-59.52-115.44h53.76l29.76,65.28,29.76-65.28h53.04Z"/>
      <path class="cls-10" d="m931.84,373.74c-13.28-7.44-23.8-17.76-31.56-30.96-7.76-13.2-11.64-28.12-11.64-44.76s3.88-31.56,11.64-44.76c7.76-13.2,18.28-23.48,31.56-30.84,13.28-7.36,27.84-11.04,43.68-11.04s30.6,3.68,43.8,11.04c13.2,7.36,23.64,17.64,31.32,30.84,7.68,13.2,11.52,28.12,11.52,44.76s-3.84,31.56-11.52,44.76c-7.68,13.2-18.16,23.52-31.44,30.96-13.28,7.44-27.84,11.16-43.68,11.16s-30.4-3.72-43.68-11.16Zm72.12-44.28c6.96-7.84,10.44-18.32,10.44-31.44s-3.48-24.04-10.44-31.8c-6.96-7.76-16.44-11.64-28.44-11.64s-21.68,3.88-28.56,11.64c-6.88,7.76-10.32,18.36-10.32,31.8s3.44,23.8,10.32,31.56c6.88,7.76,16.4,11.64,28.56,11.64s21.48-3.92,28.44-11.76Z"/>
      <path class="cls-10" d="m1129.36,214.02v98.16c0,9.12,2.12,16.16,6.36,21.12,4.24,4.96,10.68,7.44,19.32,7.44s15.16-2.52,19.56-7.56c4.4-5.04,6.6-12.04,6.6-21v-98.16h47.04v98.16c0,15.52-3.28,28.76-9.84,39.72-6.56,10.96-15.48,19.2-26.76,24.72s-23.8,8.28-37.56,8.28-26.04-2.76-36.84-8.28c-10.8-5.52-19.28-13.72-25.44-24.6-6.16-10.88-9.24-24.16-9.24-39.84v-98.16h46.8Z"/>
      <path class="cls-10" d="m1339.84,383.22l-33.6-62.4h-5.04v62.4h-47.04v-169.2h74.16c13.6,0,25.12,2.36,34.56,7.08,9.44,4.72,16.56,11.2,21.36,19.44,4.8,8.24,7.2,17.48,7.2,27.72,0,11.52-3.16,21.64-9.48,30.36-6.32,8.72-15.56,14.92-27.72,18.6l38.16,66h-52.56Zm-38.64-94.56h23.28c6.4,0,11.2-1.52,14.4-4.56,3.2-3.04,4.8-7.44,4.8-13.2,0-5.44-1.64-9.72-4.92-12.84-3.28-3.12-8.04-4.68-14.28-4.68h-23.28v35.28Z"/>
    </g>
    <g>
      <path class="cls-17" d="m827.69,440.15v207.98h-57.82v-207.98h57.82Z"/>
      <path class="cls-17" d="m1000.41,453.27c16.42,8.75,29.06,21,37.91,36.73,8.85,15.74,13.27,33.73,13.27,53.99s-4.48,37.96-13.42,53.69c-8.95,15.74-21.64,28.08-38.06,37.02-16.42,8.95-35.45,13.42-57.08,13.42h-82.31v-207.98h82.31c21.83,0,40.95,4.38,57.38,13.13Zm-21.98,129.95c9.63-9.24,14.46-22.32,14.46-39.23s-4.82-30.33-14.46-39.68c-9.64-9.34-22.91-14.01-39.82-14.01h-20.06v106.79h20.06c16.91,0,30.19-4.62,39.82-13.86Z"/>
      <path class="cls-17" d="m1135.37,486.46v33.93h66.38v43.96h-66.38v37.46h75.23v46.31h-133.05v-207.98h133.05v46.31h-75.23Z"/>
      <path class="cls-17" d="m1370.78,614.2h-73.75l-11.21,33.92h-60.77l75.81-207.98h66.67l75.52,207.98h-61.07l-11.21-33.92Zm-14.46-44.25l-22.42-67.26-22.12,67.26h44.54Z"/>
    </g>
  </g>
  <g id="Layer_2" data-name="Layer 2">
    <g>
      <g>
        <rect class="cls-1" x="580.29" y="1611.98" width="71.03" height="97.55"/>
        <g>
          <path class="cls-10" d="m567,1697.93h95.58c2.19,0,3.97-2.15,3.97-4.8v-5.61c0-2.65-1.78-4.8-3.97-4.8h-95.58c-2.19,0-3.97,2.15-3.97,4.8v5.61c0,2.65,1.78,4.8,3.97,4.8Z"/>
          <path class="cls-10" d="m567,1671.44h95.58c2.19,0,3.97-1.6,3.97-3.57v-7.46c0-1.97-1.78-3.57-3.97-3.57h-95.58c-2.19,0-3.97,1.6-3.97,3.57v7.46c0,1.97,1.78,3.57,3.97,3.57Z"/>
          <path class="cls-10" d="m598.26,1737.5h35.63c1.36,0,2.64-.63,3.46-1.69l16.13-20.93c2.16-2.81.12-6.83-3.46-6.83h-68.44c-3.62,0-5.65,4.09-3.42,6.88l16.68,20.93c.82,1.03,2.08,1.64,3.42,1.64Z"/>
          <path class="cls-10" d="m567,1645.77h95.58c2.19,0,3.97-1.56,3.97-3.48v-7.84c0-1.92-1.78-3.48-3.97-3.48h-95.58c-2.19,0-3.97,1.56-3.97,3.48v7.84c0,1.92,1.78,3.48,3.97,3.48Z"/>
        </g>
        <path class="cls-10" d="m650.79,1612.21h-68.08c-67.35,0-67.71-79.61-67.71-106.47l-27.19-266.78v-.43c0-59.78,42.57-108.41,94.9-108.41h68.08c52.33,0,94.9,48.63,94.9,108.41l-.05.91-28.96,266.33c-.05,55.34-8.14,106.44-65.9,106.44Zm-146.21-374.09l27.19,266.77v.43c0,62.33,15.71,90.13,50.94,90.13h68.08c36.27,0,49.12-23.58,49.12-90.13l.05-.91,28.96-266.31c-.2-50.33-35.18-91.2-78.13-91.2h-68.08c-42.96,0-77.94,40.88-78.13,91.23Z"/>
        <g>
          <path class="cls-2" d="m704.36,1507.24l30.68-272.98c-.22-51.59-37.27-93.48-82.78-93.48h-72.13c-45.52,0-82.58,41.91-82.78,93.51l28.81,273.44v.44c0,63.89,16.64,92.38,53.97,92.38h72.13c38.43,0,52.05-24.17,52.05-92.38l.05-.93Z"/>
          <path class="cls-10" d="m716.13,1506.8l28.96-265.98.05-.9c0-59.7-42.57-108.27-94.9-108.27h-68.08c-52.33,0-94.9,48.57-94.9,108.27v.43l27.19,266.43c0,26.83.36,106.33,67.71,106.33h68.08c57.75,0,65.85-51.03,65.9-106.3Zm-65.9,89.56h-68.08c-35.23,0-50.94-27.76-50.94-90.01v-.43l-27.19-266.42c.19-50.28,35.17-91.11,78.13-91.11h68.08c42.96,0,77.93,40.82,78.13,91.08l-28.96,265.97-.05.91c0,66.46-12.86,90.01-49.12,90.01Z"/>
        </g>
      </g>
      <path class="cls-12" d="m659.54,1312.11l-9.63-.51c-10.59-.56-15.45-12.16-14.71-25.98l-.31-54.61c.74-13.82,10.01-24.66,20.6-24.1l9.63.51c10.59.56,18.66,12.33,17.92,26.15l-4.62,56.44c-.78,14.66-8.29,22.65-18.88,22.09Z"/>
    </g>
  </g>
  <g id="Layer_3" data-name="Layer 3">
    <g>
      <rect class="cls-16" x="880.51" y="1780.39" width="80.44" height="184.72" rx="12" ry="12"/>
      <g>
        <path class="cls-10" d="m871.05,1948.72h99.34c2.19,0,3.96-2.73,3.96-6.1v-2.7c0-3.37-1.77-6.1-3.96-6.1h-99.34c-2.19,0-3.96,2.73-3.96,6.1v2.7c0,3.37,1.77,6.1,3.96,6.1Z"/>
        <path class="cls-10" d="m869.66,1927.75h101.38c2.24,0,4.05-1.89,4.05-4.23v-4.83c0-2.34-1.81-4.23-4.05-4.23h-101.38c-2.24,0-4.05,1.89-4.05,4.23v4.83c0,2.34,1.81,4.23,4.05,4.23Z"/>
        <path class="cls-10" d="m900.17,1977.03h40.2c1.03,0,2.02-.37,2.76-1.02l16.63-14.81c2.52-2.24.77-6.13-2.76-6.13h-74.03c-3.56,0-5.3,3.95-2.71,6.18l17.2,14.81c.73.63,1.7.98,2.71.98Z"/>
        <path class="cls-10" d="m870.28,1907.01h100.14c2.58,0,4.68-2.24,4.68-5.01v-4.17c0-2.77-2.09-5.01-4.68-5.01h-100.14c-2.58,0-4.68,2.24-4.68,5.01v4.17c0,2.77,2.09,5.01,4.68,5.01Z"/>
        <path class="cls-20" d="m823.9,1775.79c0,5.38.5,10.65,1.4,15.78.12.67.23,1.34.36,2.01,8.33,41.69,45.37,73.22,89.68,73.22h6.31c44.31,0,81.34-31.52,89.68-73.22,1.15-5.75,1.76-11.7,1.76-17.78v-7.32s-189.19,0-189.19,0v7.32Z"/>
        <path class="cls-3" d="m922.46,1393.52h-6.46c-51.61,0-93.6,37.01-93.6,82.49v274.03s0,15.17,0,15.17v15.17s193.66,0,193.66,0v-14.96s0-.21,0-.21v-15.17s0-274.03,0-274.03c0-45.49-41.99-82.49-93.6-82.49Z"/>
        <path class="cls-10" d="m921.53,1387.5h-6.08c-58.7,0-106.45,42.85-106.45,95.53v262.92s0,14.56,0,14.56v14.56s0,6.37,0,6.37c0,5.27.5,10.43,1.42,15.47,3.4,18.64,12.81,35.48,26.4,48.85l13.68,16.65,17.21,20.94h102.92s16.57-20.94,16.57-20.94l14.08-17.79c12.99-13.19,21.99-29.6,25.29-47.71.92-5.04,1.42-10.2,1.42-15.47v-6.37s0-14.56,0-14.56v-14.56s0-262.92,0-262.92c0-52.67-47.75-95.53-106.45-95.53Zm88.2,373v.21s0,14.35,0,14.35v6.37c0,5.29-.59,10.46-1.7,15.47-8.04,36.26-43.76,63.68-86.5,63.68h-6.08c-42.74,0-78.46-27.42-86.5-63.68-.13-.58-.23-1.16-.35-1.74-.87-4.46-1.35-9.04-1.35-13.72v-6.37s0-14.56,0-14.56v-14.56s0-262.92,0-262.92c0-43.64,39.57-79.15,88.2-79.15h6.08c48.64,0,88.2,35.51,88.2,79.15v262.92s0,14.56,0,14.56Z"/>
      </g>
      <path class="cls-18" d="m962.36,1455.93h0c13.38.12,24.22,10.59,24.09,23.25l-1.08,104.96c-.13,12.67-11.19,22.93-24.57,22.8h0c-13.38-.12-24.22-10.59-24.09-23.25l1.08-104.96c.13-12.67,11.19-22.93,24.57-22.8Z"/>
    </g>
  </g>
  <g id="Layer_4" data-name="Layer 4">
    <g>
      <rect class="cls-19" x="1119.96" y="1456.29" width="45.68" height="85.65" rx="7.73" ry="7.73"/>
      <path class="cls-9" d="m1143.52,1055.17c-103.49.41-150.61,87.91-150.6,169.05,0,7.69.43,15.44,1.28,23.17,4.12,37.22,18.26,73.9,43.28,101.18,9.61,12.17,20.25,23.42,30.02,32.91,6.37,6.19,12.36,11.62,17.46,16.07,9.23,8.04,15.53,12.87,15.77,13.05l3.15,2.39v48.22l13.85-.02,49.64-.06,16.35-.02.16-16.36v-31.87l3.14-2.39c.24-.18,6.66-5.11,16.03-13.32,5.19-4.55,11.28-10.1,17.74-16.42,10.57-10.34,22.11-22.73,32.22-36.08,23.14-27.14,36.19-62.65,39.95-98.55.76-7.32,1.15-14.65,1.15-21.93,0-81.13-47.13-168.62-150.6-169.01Z"/>
      <path class="cls-5" d="m1179.33,1482.15l-13.68-.13-47.11-.46-13.23-.13c-2.55-.03-4.65,2.03-4.67,4.58l-.06,5.96c-.02,2.55,2.03,4.65,4.58,4.67l13.38.13,47.11.46,13.54.13c2.55.02,4.65-2.03,4.67-4.58l.06-5.96c.02-2.55-2.03-4.65-4.58-4.67Z"/>
      <path class="cls-5" d="m1169.21,1509.67l-3.77-.04-48.33-.47v.19h-1.08c-2.34-.03-4.26,1.85-4.28,4.19l-.07,6.73c-.02,2.34,1.86,4.26,4.2,4.28h1.23v.22l48.33.47,3.62.04c2.4.02,4.37-1.9,4.39-4.3l.07-6.91c.02-2.4-1.9-4.37-4.3-4.39Z"/>
      <path class="cls-5" d="m1164.54,1534.88h-1.26s-42.22-.42-42.22-.42c-.13,0-.26.02-.39.04-2.2.18-3.94,1.98-3.96,4.23l-.05,5.1c-.02,2.38,1.89,4.32,4.26,4.35l5.36.05c2.38.02,4.29,1.97,4.26,4.35-.02,2.38,1.89,4.32,4.26,4.35l15.53.15c2.38.02,4.32-1.89,4.35-4.26.02-2.38,1.97-4.29,4.35-4.26l5.36.05c2.38.02,4.32-1.89,4.35-4.26l.05-5.1c.02-2.38-1.89-4.32-4.26-4.35Z"/>
      <path class="cls-5" d="m1266.16,1101.27c-28.99-37.12-70.62-57.1-120.39-57.77h-.05c-49.79-.3-91.8,18.87-121.51,55.43-26.12,32.15-40.76,75.47-41.21,121.99-.36,36.75,8.19,71.68,24.37,100.83,22.62,43.34,68.2,81.91,80.61,91.93l-.36,36.91-.18,17.99,31.11.27,47.11.4,30.81.26.18-18.92.35-35.96c13.55-10.55,66.24-53.58,87.21-100.54,13.23-26.65,20.47-57.57,20.79-90.06.45-46.51-13.34-90.1-38.83-122.75Zm18.66,142.98c-3.56,34.07-15.95,67.77-37.91,93.52-9.6,12.67-20.54,24.42-30.57,34.24-6.13,6-11.91,11.27-16.84,15.58-8.89,7.79-14.98,12.46-15.21,12.64l-2.98,2.27v30.24l-.15,15.52-15.52.02-47.11.05-13.14.02v-45.75l-2.99-2.26c-.23-.17-6.21-4.75-14.97-12.38-4.84-4.22-10.53-9.38-16.57-15.25-9.27-9-19.36-19.68-28.48-31.23-23.74-25.88-37.16-60.7-41.07-96.01-.81-7.33-1.22-14.68-1.22-21.98,0-76.99,44.71-160.03,142.91-160.42,98.19.37,142.9,83.39,142.91,160.38,0,6.91-.37,13.87-1.09,20.81Z"/>
      <ellipse class="cls-7" cx="1205.94" cy="1183.78" rx="42.47" ry="51.03"/>
    </g>
  </g>
  <g id="Layer_5" data-name="Layer 5">
    <g>
      <rect class="cls-19" x="803.79" y="1143.62" width="47.95" height="56.8"/>
      <rect class="cls-19" x="810.27" y="1146.33" width="34.99" height="76.05"/>
      <path id="blub" class="cls-11" d="m870.97,1177.78h-86.07c-1.78,0-3.23-1.44-3.23-3.23v-10.62c0-1.78,1.44-3.23,3.23-3.23h86.07c1.78,0,3.23,1.44,3.23,3.23v10.62c0,1.78-1.44,3.23-3.23,3.23Zm-9.62,14.14h-66.82c-1.78,0-3.23,1.44-3.23,3.23v10.62c0,1.78,1.44,3.23,3.23,3.23h66.82c1.78,0,3.23-1.44,3.23-3.23v-10.62c0-1.78-1.44-3.23-3.23-3.23Zm-10.91,25.41h-45c-1.78,0-3.23,1.44-3.23,3.23v10.62c0,1.78,1.44,3.23,3.23,3.23h45c1.78,0,3.23-1.44,3.23-3.23v-10.62c0-1.78-1.44-3.23-3.23-3.23Zm-13.8,17.07h-17.4c-1.78,0-3.23,1.44-3.23,3.23v4.27c0,1.78,1.44,3.23,3.23,3.23h17.4c1.78,0,3.23-1.44,3.23-3.23v-4.27c0-1.78-1.44-3.23-3.23-3.23Zm-69.82-87.94v-61.64c-18.78-15.01-105.4-87.88-105.4-154.27,0-92.38,74.38-167.54,165.79-167.54,91.42,0,165.79,75.16,165.79,167.54,0,66.26-86.33,139.12-105.04,154.14v61.62s-121.14.15-121.14.15Zm60.39-366.04c-81.92,0-148.57,67.35-148.57,150.13,0,64.24,100.97,142.29,101.99,143.07l3.41,2.61v52.79s86.69-.1,86.69-.1v-52.8s3.4-2.62,3.4-2.62c1.01-.78,101.64-78.84,101.64-142.96,0-82.78-66.64-150.13-148.56-150.13Z"/>
      <path id="blub-2" data-name="blub" class="cls-6" d="m871.23,1177.78h-86.58c-1.64,0-2.97-1.33-2.97-2.97v-11.13c0-1.64,1.33-2.97,2.97-2.97h86.58c1.64,0,2.97,1.33,2.97,2.97v11.13c0,1.64-1.33,2.97-2.97,2.97Zm-9.62,14.14h-67.33c-1.64,0-2.97,1.33-2.97,2.97v11.13c0,1.64,1.33,2.97,2.97,2.97h67.33c1.64,0,2.97-1.33,2.97-2.97v-11.13c0-1.64-1.33-2.97-2.97-2.97Zm-10.91,25.41h-45.51c-1.64,0-2.97,1.33-2.97,2.97v11.13c0,1.64,1.33,2.97,2.97,2.97h45.51c1.64,0,2.97-1.33,2.97-2.97v-11.13c0-1.64-1.33-2.97-2.97-2.97Zm-13.8,17.07h-17.91c-1.64,0-2.97,1.33-2.97,2.97v4.78c0,1.64,1.33,2.97,2.97,2.97h17.91c1.64,0,2.97-1.33,2.97-2.97v-4.78c0-1.64-1.33-2.97-2.97-2.97Zm-70.07-87.94v-61.64c-18.78-15.01-105.4-87.88-105.4-154.27,0-92.38,74.38-167.54,165.79-167.54,91.42,0,165.79,75.16,165.79,167.54,0,66.26-86.33,139.12-105.04,154.14v61.62s-121.14.15-121.14.15Zm60.39-366.04c-81.92,0-148.57,67.35-148.57,150.13,0,64.24,100.97,142.29,101.99,143.07l3.41,2.61v52.79s86.69-.1,86.69-.1v-52.8s3.4-2.62,3.4-2.62c1.01-.78,101.64-78.84,101.64-142.96,0-82.78-66.64-150.13-148.56-150.13Z"/>
      <path class="cls-14" d="m828.04,768.39c-88.11,0-159.8,72.44-159.8,161.48,0,69.1,108.6,153.05,109.7,153.89l3.67,2.81v56.78s93.24-.11,93.24-.11v-56.79s3.66-2.81,3.66-2.81c1.09-.84,109.32-84.8,109.32-153.76,0-89.04-71.68-161.48-159.79-161.48Z"/>
      <rect class="cls-5" x="816.02" y="1234.41" width="23.85" height="10.72" rx="3.45" ry="3.45"/>
      <path class="cls-5" d="m802.21,1228.88c0,3.05,2.47,5.52,5.52,5.52h8.28s23.85,0,23.85,0h8.28c3.05,0,5.52-2.47,5.52-5.52v-6.03c0-3.05-2.47-5.52-5.52-5.52h-40.41c-3.05,0-5.52,2.47-5.52,5.52v6.03Z"/>
      <rect class="cls-5" x="791.3" y="1191.92" width="73.28" height="17.07" rx="6.06" ry="6.06"/>
      <rect class="cls-5" x="781.68" y="1160.7" width="92.52" height="17.07" rx="5.98" ry="5.98"/>
      <path class="cls-5" d="m827.21,763.02c-91.42,0-165.79,75.16-165.79,167.54,0,66.39,86.62,139.26,105.4,154.27v61.64s121.14-.15,121.14-.15v-61.62c18.71-15.01,105.04-87.87,105.04-154.14,0-92.38-74.37-167.54-165.79-167.54Zm46.92,310.5l-3.4,2.62v52.8s-86.68.1-86.68.1v-52.79s-3.41-2.61-3.41-2.61c-1.02-.78-101.99-78.83-101.99-143.07,0-82.78,66.65-150.13,148.57-150.13,81.92,0,148.56,67.35,148.56,150.13,0,64.12-100.63,142.18-101.64,142.96Z"/>
      <ellipse class="cls-15" cx="886.09" cy="864.51" rx="40.82" ry="41.25"/>
    </g>
  </g>
  <g id="Layer_6" data-name="Layer 6">
    <g>
      <rect class="cls-19" x="438.45" y="866.58" width="106.48" height="134.16"/>
      <path id="blub-3" data-name="blub" class="cls-5" d="m525.53,1030.86h-72.06c-2.31,0-4.47-1.15-5.75-3.08l-16.73-25.1c-3.06-4.59.23-10.74,5.75-10.74h105.52c5.52,0,8.81,6.15,5.75,10.74l-16.73,25.1c-1.28,1.92-3.44,3.08-5.75,3.08Zm24.84-71.34h-121.73c-2.65,0-4.8,2.15-4.8,4.8v9.86c0,2.65,2.15,4.8,4.8,4.8h121.73c2.65,0,4.8-2.15,4.8-4.8v-9.86c0-2.65-2.15-4.8-4.8-4.8Zm0-32.43h-121.73c-2.65,0-4.8,2.15-4.8,4.8v9.86c0,2.65,2.15,4.8,4.8,4.8h121.73c2.65,0,4.8-2.15,4.8-4.8v-9.86c0-2.65-2.15-4.8-4.8-4.8Zm2.94-32.43h-124.67c-2.65,0-4.8,2.15-4.8,4.8v9.86c0,2.65,2.15,4.8,4.8,4.8h121.73c2.65,0,4.8-2.15,4.8-4.8v-12.79c0-1.03-.83-1.86-1.86-1.86Zm12.95-13.87h-152.41v-152.01c-67.66-22.95-117.84-73.8-117.84-120.39,0-42.76,90.45-113.5,193.53-113.5s193.47,70.74,193.47,113.5c0,46.16-49.72,96.86-116.74,120.02v152.38Zm-132.96-19.46h113.5v-147.12l6.83-2.13c50.19-15.67,104.17-56.44,109.49-97.21h-347.24c5.31,41.16,59.83,82.01,110.54,97.51l6.88,2.11v146.84Zm-113.84-265.91h340.07c-16.8-31.14-84.66-81.07-170.01-81.07s-153.27,49.93-170.07,81.07Z"/>
      <path class="cls-17" d="m664.14,608.29c0-22-32.48-53.1-79.79-73.03-27-12.29-59.4-20.91-94.82-20.91-39.71,0-75.62,10.81-104.39,25.49-41.71,19.89-69.59,48.06-69.59,68.44,0,2.19.17,4.39.46,6.59h-.14c5.31,41.16,59.83,82.01,110.54,97.51l6.88,2.11v146.84h113.5v-147.12l6.83-2.13c33.6-10.49,68.87-32.23,90.13-57.69,12.93-14.8,20.38-30.77,20.38-46.11Z"/>
      <ellipse class="cls-13" cx="580.08" cy="620.15" rx="50.26" ry="30.24"/>
    </g>
  </g>
  <g id="Layer_7" data-name="Layer 7">
    <g>
      <rect class="cls-19" x="248.95" y="1257.06" width="69.4" height="159.34" rx="12" ry="12"/>
      <path id="whole-blub" class="cls-5" d="m353.73,1344.44l-142.33,2.35c-1.91.03-3.49-1.43-3.53-3.25l-.68-37.5c-.03-1.82,1.5-3.34,3.41-3.37l142.33-2.35c1.91-.03,3.49,1.43,3.53,3.25l.68,37.5c.03,1.82-1.5,3.34-3.41,3.37Zm-113.58,60.38s11.09,21.89,24.15,21.67l39.45-.65c13.06-.22,23.35-22.45,23.35-22.45m9.21-15.43l-.47-26.19c-.02-1.27-1.13-2.29-2.46-2.27l-101.07,1.67c-1.33.02-2.4,1.08-2.38,2.35l.47,26.19c.02,1.27,1.13,2.29,2.46,2.27l101.07-1.67c1.33-.02,2.4-1.08,2.38-2.35Zm-54.77-99.25c-84.15,1.39-135.55-62.13-137.5-169.91-1.98-109.21,73.17-260.95,129.68-261.89,56.51-.93,137.11,148.24,139.08,257.45,1.95,107.78-47.12,172.96-131.27,174.35Zm-7.45-411.82c-33.65.56-110.61,127.23-108.54,241.55,1.75,96.7,43.9,151.47,115.63,150.29s111.88-57.32,110.13-154.01c-2.07-114.32-83.57-238.38-117.22-237.83Z"/>
      <path id="base" class="cls-5" d="m353.73,1344.44l-142.33,2.35c-1.91.03-3.49-1.43-3.53-3.25l-.68-37.5c-.03-1.82,1.5-3.34,3.41-3.37l142.33-2.35c1.91-.03,3.49,1.43,3.53,3.25l.68,37.5c.03,1.82-1.5,3.34-3.41,3.37Zm-113.58,60.38s11.09,21.89,24.15,21.67l39.45-.65c13.06-.22,23.35-22.45,23.35-22.45m9.21-15.43l-.47-26.19c-.02-1.27-1.13-2.29-2.46-2.27l-101.07,1.67c-1.33.02-2.4,1.08-2.38,2.35l.47,26.19c.02,1.27,1.13,2.29,2.46,2.27l101.07-1.67c1.33-.02,2.4-1.08,2.38-2.35Z"/>
      <g id="blub-fill">
        <path class="cls-8" d="m271.78,869.91c-35.65.59-117.23,133.33-115.07,253.11,1.83,101.31,46.48,158.69,122.5,157.44,76.02-1.25,118.56-60.08,116.73-161.39-2.17-119.78-88.5-249.75-124.16-249.16Z"/>
      </g>
      <path id="blub-stroke" class="cls-5" d="m281.54,1288.71c-84.15,1.39-135.55-62.13-137.5-169.91-1.98-109.21,73.17-260.95,129.68-261.89,56.51-.93,137.11,148.24,139.08,257.45,1.95,107.78-47.12,172.96-131.27,174.35Zm-7.45-411.82c-33.65.56-110.61,127.23-108.54,241.55,1.75,96.7,43.9,151.47,115.63,150.29s111.88-57.32,110.13-154.01c-2.07-114.32-83.57-238.38-117.22-237.83Z"/>
      <path class="cls-17" d="m329.83,959.98c9.88,25.73,17.76,60.3-16.94,59.73-12.21-.2-23.93-17.76-30.54-44.38-7.29-29.4-8.88-52.55,7.21-57.88,13.95-4.62,30.45,16.98,40.26,42.54Z"/>
    </g>
  </g>
</svg>