<?xml version="1.0" encoding="UTF-8"?>
<svg xmlns="http://www.w3.org/2000/svg" viewBox="0 0 672 771">
  <defs>
    <style>
      .cls-1 {
        fill: #939393;
      }

      .cls-2 {
        fill: #e07ec2;
      }

      .cls-3, .cls-4 {
        isolation: isolate;
      }

      .cls-5 {
        fill: #3e3e3e;
      }

      .cls-6 {
        fill: #4d4d4d;
      }

      .cls-7 {
        fill: #ddedeb;
        opacity: .45;
      }

      .cls-8 {
        fill: #e07e1b;
      }

      .cls-9 {
        fill: #662d91;
      }

      .cls-10 {
        fill: #333;
      }

      .cls-11 {
        fill: #f7efe7;
      }

      .cls-12 {
        fill: gray;
      }

      .cls-13 {
        fill: #efcee5;
      }

      .cls-14 {
        fill: #fce0bb;
      }

      .cls-15 {
        fill: #a0249d;
      }

      .cls-16 {
        fill: #f9de6b;
        stroke: #3e3e3e;
        stroke-miterlimit: 10;
        stroke-width: 8px;
      }

      .cls-4 {
        fill: #707070;
        font-family: Poppins-ExtraBold, Poppins;
        font-size: 91.93px;
        font-weight: 700;
      }

      .cls-17 {
        fill: #b069b2;
      }

      .cls-18 {
        fill: #fbb03b;
      }

      .cls-19 {
        fill: #777776;
      }

      .cls-20 {
        fill: #666;
      }
    </style>
  </defs>
  <g id="Layer_1" data-name="Layer 1">
    <g id="Layer_3" data-name="Layer 3">
      <g>
        <g>
          <rect class="cls-1" x="503.54" y="634.32" width="31.74" height="43.59"/>
          <g>
            <path class="cls-10" d="m497.6,672.73h42.71c.98,0,1.77-.96,1.77-2.15v-2.51c0-1.19-.79-2.15-1.77-2.15h-42.71c-.98,0-1.77.96-1.77,2.15v2.51c0,1.19.79,2.15,1.77,2.15Z"/>
            <path class="cls-10" d="m497.6,660.89h42.71c.98,0,1.77-.71,1.77-1.59v-3.33c0-.88-.79-1.59-1.77-1.59h-42.71c-.98,0-1.77.71-1.77,1.59v3.33c0,.88.79,1.59,1.77,1.59Z"/>
            <path class="cls-10" d="m511.57,690.41h15.92c.61,0,1.18-.28,1.55-.76l7.21-9.35c.97-1.25.05-3.05-1.55-3.05h-30.58c-1.62,0-2.52,1.83-1.53,3.08l7.46,9.35c.37.46.93.73,1.53.73Z"/>
            <path class="cls-10" d="m497.6,649.42h42.71c.98,0,1.77-.7,1.77-1.55v-3.5c0-.86-.79-1.55-1.77-1.55h-42.71c-.98,0-1.77.7-1.77,1.55v3.5c0,.86.79,1.55,1.77,1.55Z"/>
          </g>
          <path class="cls-10" d="m535.04,634.43h-30.42c-30.1,0-30.26-35.57-30.26-47.58l-12.15-119.21v-.19c0-26.71,19.02-48.45,42.41-48.45h30.42c23.38,0,42.41,21.73,42.41,48.45l-.02.4-12.94,119.01c-.02,24.73-3.64,47.57-29.45,47.57Zm-65.34-167.17l12.15,119.21v.19c0,27.85,7.02,40.28,22.76,40.28h30.42c16.21,0,21.95-10.54,21.95-40.28l.02-.41,12.94-119.01c-.09-22.49-15.72-40.75-34.91-40.75h-30.42c-19.2,0-34.83,18.27-34.91,40.77Z"/>
          <g>
            <path class="cls-2" d="m558.98,587.52l13.71-121.98c-.1-23.05-16.65-41.77-36.99-41.77h-32.23c-20.34,0-36.9,18.73-36.99,41.79l12.87,122.19v.2c0,28.55,7.44,41.28,24.12,41.28h32.23c17.17,0,23.26-10.8,23.26-41.28l.02-.42Z"/>
            <path class="cls-10" d="m564.24,587.32l12.94-118.86.02-.4c0-26.68-19.02-48.38-42.41-48.38h-30.42c-23.38,0-42.41,21.7-42.41,48.38v.19l12.15,119.06c0,11.99.16,47.52,30.26,47.52h30.42c25.81,0,29.43-22.8,29.45-47.5Zm-29.45,40.02h-30.42c-15.74,0-22.76-12.41-22.76-40.22v-.19l-12.15-119.05c.09-22.47,15.71-40.71,34.91-40.71h30.42c19.2,0,34.82,18.24,34.91,40.7l-12.94,118.85-.02.4c0,29.7-5.74,40.22-21.95,40.22Z"/>
          </g>
        </g>
        <path class="cls-13" d="m538.95,500.32l-4.3-.23c-4.73-.25-6.9-5.43-6.57-11.61l-.14-24.4c.33-6.17,4.47-11.02,9.21-10.77l4.3.23c4.73.25,8.34,5.51,8.01,11.69l-2.06,25.22c-.35,6.55-3.7,10.12-8.44,9.87Z"/>
      </g>
    </g>
    <g id="Layer_4" data-name="Layer 4">
      <g>
        <polygon class="cls-20" points="223.99 643.37 223.99 630.06 199.81 630.14 199.81 643.37 199.81 645.59 199.81 650.48 203.95 650.48 203.95 666.31 214.71 666.31 219.85 666.31 219.85 650.48 220.02 650.48 223.99 650.48 223.99 643.37 223.99 643.37"/>
        <path class="cls-10" d="m234.74,624.55h-46.5c-.57,0-1.03.67-1.03,1.49v2.94c0,.98.55,1.78,1.23,1.78l12.16-.02,23.28-.04,10.66-.02c.77,0,1.39-.9,1.39-2.01v-2.39c0-.95-.53-1.72-1.19-1.72Z"/>
        <path class="cls-10" d="m229.45,636.27h-35.54c-.61,0-1.11.5-1.11,1.11v4.48c0,.81.66,1.47,1.47,1.47h35.01c1.21,0,2.19-.98,2.19-2.19v-2.87c0-1.11-.9-2.01-2.01-2.01Z"/>
        <path class="cls-10" d="m225.67,649.18h-26.06c-.85,0-1.54.69-1.54,1.54v3.87c0,.91.74,1.66,1.66,1.66h26.09c.51,0,.93-.42.93-.93v-5.04c0-.6-.49-1.09-1.09-1.09Z"/>
        <path class="cls-10" d="m223.97,660.82h-22.63c-.47,0-.84.38-.84.84v4.66c0,.48.39.87.87.87h5.62v2.71c0,.71.58,1.29,1.29,1.29h9.04c.49,0,.88-.39.88-.88v-3.12h5.19c.71,0,1.29-.58,1.29-1.29v-4.36c0-.39-.32-.71-.71-.71Z"/>
        <path class="cls-16" d="m229.44,437.71c-15.43-9.8-17.8-14.77-23.22-14.25-1.73.17-2.24.75-13.67,10.75-2.38,2.08-4.52,3.95-6.35,5.54-31.23,12.35-45.77,47.33-45.77,75.31,0,3.27.2,6.57.6,9.86,1.92,15.84,8.52,31.45,20.2,43.05,4.49,5.18,9.45,9.97,14.01,14,2.97,2.63,5.77,4.94,8.15,6.84,4.31,3.42,7.25,5.47,7.36,5.55l1.47,1.02v20.52l37.34-.04v-20.52l1.47-1.02c.11-.08,3.11-2.18,7.48-5.67,2.42-1.93,5.27-4.3,8.28-6.99,4.93-4.4,10.32-9.67,15.04-15.35,10.8-11.55,16.89-26.66,18.64-41.93.36-3.11.54-6.23.54-9.33,0-29.73-16.21-67.36-51.56-77.34Z"/>
        <circle class="cls-11" cx="236.62" cy="481.15" r="17.16"/>
      </g>
    </g>
    <g id="Layer_5" data-name="Layer 5">
      <g>
        <rect class="cls-19" x="350.12" y="695.21" width="20.71" height="38.83" rx="7.73" ry="7.73"/>
        <path class="cls-9" d="m360.8,513.38c-46.91.19-68.27,39.85-68.27,76.63,0,3.49.19,7,.58,10.5,1.87,16.87,8.28,33.5,19.62,45.86,4.36,5.52,9.18,10.62,13.61,14.92,2.89,2.8,5.6,5.27,7.92,7.28,4.18,3.65,7.04,5.83,7.15,5.92l1.43,1.08v21.86h6.28s22.5-.03,22.5-.03h7.41s.07-7.42.07-7.42v-14.45l1.42-1.08c.11-.08,3.02-2.32,7.26-6.04,2.35-2.06,5.11-4.58,8.04-7.44,4.79-4.69,10.02-10.3,14.61-16.36,10.49-12.3,16.41-28.4,18.11-44.68.35-3.32.52-6.64.52-9.94,0-36.78-21.36-76.44-68.27-76.61Z"/>
        <path class="cls-5" d="m377.03,706.93l-6.2-.06-21.35-.21-6-.06c-1.16-.01-2.11.92-2.12,2.08l-.03,2.7c-.01,1.16.92,2.11,2.08,2.12l6.06.06,21.35.21,6.14.06c1.16.01,2.11-.92,2.12-2.08l.03-2.7c.01-1.16-.92-2.11-2.08-2.12Z"/>
        <path class="cls-5" d="m372.44,719.41l-1.71-.02-21.91-.21v.09h-.49c-1.06-.02-1.93.84-1.94,1.9l-.03,3.05c-.01,1.06.84,1.93,1.9,1.94h.56v.1l21.91.21,1.64.02c1.09.01,1.98-.86,1.99-1.95l.03-3.13c.01-1.09-.86-1.98-1.95-1.99Z"/>
        <path class="cls-5" d="m370.33,730.84h-.57s-19.14-.19-19.14-.19c-.06,0-.12.01-.18.02-1,.08-1.79.9-1.8,1.92l-.02,2.31c-.01,1.08.85,1.96,1.93,1.97l2.43.02c1.08.01,1.94.89,1.93,1.97-.01,1.08.85,1.96,1.93,1.97l7.04.07c1.08.01,1.96-.85,1.97-1.93.01-1.08.89-1.94,1.97-1.93l2.43.02c1.08.01,1.96-.85,1.97-1.93l.02-2.31c.01-1.08-.85-1.96-1.93-1.97Z"/>
        <path class="cls-5" d="m416.39,534.28c-13.14-16.83-32.01-25.88-54.57-26.19h-.02c-22.57-.13-41.61,8.56-55.08,25.13-11.84,14.57-18.48,34.21-18.68,55.3-.16,16.66,3.71,32.49,11.05,45.71,10.25,19.65,30.91,37.13,36.54,41.67l-.16,16.73-.08,8.16,14.1.12,21.35.18,13.97.12.08-8.58.16-16.3c6.14-4.78,30.03-24.29,39.53-45.58,6-12.08,9.28-26.1,9.42-40.82.2-21.08-6.05-40.84-17.6-55.65Zm8.46,64.82c-1.62,15.44-7.23,30.72-17.18,42.39-4.35,5.74-9.31,11.07-13.86,15.52-2.78,2.72-5.4,5.11-7.63,7.06-4.03,3.53-6.79,5.65-6.89,5.73l-1.35,1.03v13.71l-.07,7.04h-7.03s-21.35.03-21.35.03h-5.96s0-20.73,0-20.73l-1.36-1.03c-.1-.08-2.81-2.15-6.78-5.61-2.19-1.91-4.77-4.25-7.51-6.91-4.2-4.08-8.78-8.92-12.91-14.16-10.76-11.73-16.85-27.51-18.62-43.52-.37-3.32-.55-6.66-.55-9.97,0-34.9,20.27-72.54,64.78-72.72,44.51.17,64.78,37.8,64.78,72.7,0,3.13-.17,6.29-.49,9.43Z"/>
        <ellipse class="cls-7" cx="389.09" cy="571.68" rx="19.25" ry="23.13"/>
      </g>
    </g>
    <g id="Layer_6" data-name="Layer 6">
      <g>
        <rect class="cls-19" x="375.11" y="441.05" width="23.79" height="28.18"/>
        <rect class="cls-19" x="378.33" y="442.39" width="17.36" height="37.74"/>
        <path id="blub" class="cls-12" d="m406.82,457.99h-39.46c-1.78,0-3.23-1.44-3.23-3.23v-2.02c0-1.78,1.44-3.23,3.23-3.23h39.46c1.78,0,3.23,1.44,3.23,3.23v2.02c0,1.78-1.44,3.23-3.23,3.23Zm-4.78,7.02h-29.91c-1.78,0-3.23,1.44-3.23,3.23v2.02c0,1.78,1.44,3.23,3.23,3.23h29.91c1.78,0,3.23-1.44,3.23-3.23v-2.02c0-1.78-1.44-3.23-3.23-3.23Zm-5.41,12.61h-19.08c-1.78,0-3.23,1.44-3.23,3.23v2.02c0,1.78,1.44,3.23,3.23,3.23h19.08c1.78,0,3.23-1.44,3.23-3.23v-2.02c0-1.78-1.44-3.23-3.23-3.23Zm-6.28,8.47h-6.51c-1.47,0-2.66,1.19-2.66,2.66h0c0,1.47,1.19,2.66,2.66,2.66h6.51c1.47,0,2.66-1.19,2.66-2.66h0c0-1.47-1.19-2.66-2.66-2.66Zm-33.59-43.64v-30.59c-9.32-7.45-52.3-43.61-52.3-76.55,0-45.84,36.91-83.14,82.27-83.14,45.36,0,82.27,37.3,82.27,83.14,0,32.88-42.84,69.04-52.13,76.49v30.58s-60.11.07-60.11.07Zm29.97-181.64c-40.65,0-73.72,33.42-73.72,74.5,0,31.88,50.1,70.61,50.61,71l1.69,1.3v26.2s43.02-.05,43.02-.05v-26.2s1.69-1.3,1.69-1.3c.5-.39,50.44-39.12,50.44-70.94,0-41.08-33.07-74.5-73.72-74.5Z"/>
        <path id="blub-2" data-name="blub" class="cls-6" d="m407.08,457.99h-39.97c-1.64,0-2.97-1.33-2.97-2.97v-2.53c0-1.64,1.33-2.97,2.97-2.97h39.97c1.64,0,2.97,1.33,2.97,2.97v2.53c0,1.64-1.33,2.97-2.97,2.97Zm-4.78,7.02h-30.42c-1.64,0-2.97,1.33-2.97,2.97v2.53c0,1.64,1.33,2.97,2.97,2.97h30.42c1.64,0,2.97-1.33,2.97-2.97v-2.53c0-1.64-1.33-2.97-2.97-2.97Zm-5.41,12.61h-19.59c-1.64,0-2.97,1.33-2.97,2.97v2.53c0,1.64,1.33,2.97,2.97,2.97h19.59c1.64,0,2.97-1.33,2.97-2.97v-2.53c0-1.64-1.33-2.97-2.97-2.97Zm-6.54,8.47h-6.51c-1.47,0-2.66,1.19-2.66,2.66h0c0,1.47,1.19,2.66,2.66,2.66h6.51c1.47,0,2.66-1.19,2.66-2.66h0c0-1.47-1.19-2.66-2.66-2.66Zm-33.59-43.64v-30.59c-9.32-7.45-52.3-43.61-52.3-76.55,0-45.84,36.91-83.14,82.27-83.14,45.36,0,82.27,37.3,82.27,83.14,0,32.88-42.84,69.04-52.13,76.49v30.58s-60.11.07-60.11.07Zm29.97-181.64c-40.65,0-73.72,33.42-73.72,74.5,0,31.88,50.1,70.61,50.61,71l1.69,1.3v26.2s43.02-.05,43.02-.05v-26.2s1.69-1.3,1.69-1.3c.5-.39,50.44-39.12,50.44-70.94,0-41.08-33.07-74.5-73.72-74.5Z"/>
        <path class="cls-15" d="m387.14,254.84c-43.72,0-79.3,35.95-79.3,80.13,0,34.29,53.89,75.95,54.43,76.36l1.82,1.39v28.18s46.27-.05,46.27-.05v-28.18s1.82-1.4,1.82-1.4c.54-.42,54.25-42.08,54.25-76.3,0-44.18-35.57-80.13-79.29-80.13Z"/>
        <rect class="cls-5" x="381.18" y="486.09" width="11.83" height="5.32" rx="1.71" ry="1.71"/>
        <path class="cls-5" d="m374.33,483.35c0,1.51,1.23,2.74,2.74,2.74h4.11s11.83,0,11.83,0h4.11c1.51,0,2.74-1.23,2.74-2.74v-2.99c0-1.51-1.23-2.74-2.74-2.74h-20.05c-1.51,0-2.74,1.23-2.74,2.74v2.99Z"/>
        <rect class="cls-5" x="368.91" y="465.01" width="36.36" height="8.47" rx="3.01" ry="3.01"/>
        <rect class="cls-5" x="364.14" y="449.52" width="45.91" height="8.47" rx="2.97" ry="2.97"/>
        <path class="cls-5" d="m386.73,252.18c-45.36,0-82.27,37.3-82.27,83.14,0,32.95,42.98,69.1,52.3,76.55v30.59s60.11-.07,60.11-.07v-30.58c9.29-7.45,52.13-43.61,52.13-76.49,0-45.84-36.91-83.14-82.27-83.14Zm23.28,154.08l-1.69,1.3v26.2s-43.02.05-43.02.05v-26.2s-1.69-1.3-1.69-1.3c-.51-.39-50.61-39.12-50.61-71,0-41.08,33.07-74.5,73.72-74.5,40.65,0,73.72,33.42,73.72,74.5,0,31.82-49.93,70.55-50.44,70.94Z"/>
        <ellipse class="cls-17" cx="415.95" cy="302.54" rx="20.26" ry="20.47"/>
      </g>
    </g>
    <g id="Layer_7" data-name="Layer 7">
      <g>
        <rect class="cls-19" x="204.02" y="325.6" width="48.32" height="60.88"/>
        <path id="blub-3" data-name="blub" class="cls-5" d="m243.54,400.15h-32.7c-1.05,0-2.03-.52-2.61-1.4l-7.59-11.39c-1.39-2.08.1-4.87,2.61-4.87h47.89c2.5,0,4,2.79,2.61,4.87l-7.59,11.39c-.58.87-1.56,1.4-2.61,1.4Zm9.04-32.38h-50.77c-2.44,0-4.41,1.98-4.41,4.41h0c0,2.44,1.98,4.41,4.41,4.41h50.77c2.44,0,4.41-1.98,4.41-4.41h0c0-2.44-1.98-4.41-4.41-4.41Zm0-14.72h-50.77c-2.44,0-4.41,1.98-4.41,4.41h0c0,2.44,1.98,4.41,4.41,4.41h50.77c2.44,0,4.41-1.98,4.41-4.41h0c0-2.44-1.98-4.41-4.41-4.41Zm2.7-14.72h-53.47c-2.44,0-4.41,1.98-4.41,4.41h0c0,2.44,1.98,4.41,4.41,4.41h50.77c2.44,0,4.41-1.98,4.41-4.41v-2.7c0-.95-.77-1.71-1.71-1.71Zm6.75-6.29h-69.17v-68.98c-30.7-10.41-53.48-33.49-53.48-54.63,0-19.4,41.05-51.51,87.83-51.51s87.8,32.1,87.8,51.51c0,20.95-22.56,43.95-52.98,54.47v69.15Zm-60.34-8.83h51.51v-66.76l3.1-.97c22.78-7.11,47.27-25.61,49.69-44.11h-157.58c2.41,18.68,27.15,37.22,50.16,44.25l3.12.96v66.64Zm-51.66-120.67h154.33c-7.62-14.13-38.42-36.79-77.15-36.79s-69.55,22.66-77.18,36.79Z"/>
        <path class="cls-18" d="m306.44,208.39c0-9.99-14.74-24.1-36.21-33.14-12.25-5.58-26.95-9.49-43.03-9.49-18.02,0-34.32,4.9-47.37,11.57-18.93,9.02-31.58,21.81-31.58,31.06,0,.99.08,1.99.21,2.99h-.06c2.41,18.68,27.15,37.22,50.16,44.25l3.12.96v66.64h51.51v-66.76l3.1-.97c15.25-4.76,31.25-14.63,40.9-26.18,5.87-6.72,9.25-13.96,9.25-20.93Z"/>
        <ellipse class="cls-14" cx="268.29" cy="213.77" rx="22.81" ry="13.72"/>
      </g>
    </g>
    <g id="Layer_8" data-name="Layer 8">
      <g>
        <rect class="cls-19" x="72.24" y="404.33" width="31.24" height="75.11" rx="12" ry="12"/>
        <path id="whole-blub" class="cls-5" d="m117.65,445.55l-60.56,1.05c-1.82.03-3.34-1.43-3.37-3.26l-.24-14.17c-.03-1.82,1.43-3.34,3.26-3.37l60.56-1.05c1.82-.03,3.34,1.43,3.37,3.26l.24,14.17c.03,1.82-1.43,3.34-3.26,3.37Zm-49.37,28.43s4.99,10.32,10.87,10.21l17.76-.31c5.88-.1,10.51-10.58,10.51-10.58m4.13-8.5l-.17-9.9c-.02-1.27-1.08-2.3-2.35-2.27l-43.05.74c-1.27.02-2.3,1.08-2.27,2.35l.17,9.9c.02,1.27,1.08,2.3,2.35,2.27l43.05-.74c1.27-.02,2.3-1.08,2.27-2.35Zm-24.63-45.56c-37.88.65-61.01-29.29-61.89-80.09-.89-51.48,32.94-123,58.37-123.44,25.44-.44,61.71,69.88,62.6,121.35.88,50.8-21.21,81.53-59.09,82.18Zm-3.35-194.12c-15.14.26-49.79,59.97-48.86,113.86.79,45.58,19.76,71.4,52.05,70.84s50.36-27.02,49.57-72.6c-.93-53.89-37.62-112.36-52.76-112.1Z"/>
        <path id="base" class="cls-5" d="m117.65,445.55l-60.56,1.05c-1.82.03-3.34-1.43-3.37-3.26l-.24-14.17c-.03-1.82,1.43-3.34,3.26-3.37l60.56-1.05c1.82-.03,3.34,1.43,3.37,3.26l.24,14.17c.03,1.82-1.43,3.34-3.26,3.37Zm-49.37,28.43s4.99,10.32,10.87,10.21l17.76-.31c5.88-.1,10.51-10.58,10.51-10.58m4.13-8.5l-.17-9.9c-.02-1.27-1.08-2.3-2.35-2.27l-43.05.74c-1.27.02-2.3,1.08-2.27,2.35l.17,9.9c.02,1.27,1.08,2.3,2.35,2.27l43.05-.74c1.27-.02,2.3-1.08,2.27-2.35Z"/>
        <g id="blub-fill">
          <path class="cls-8" d="m82.52,221.84c-16.05.28-52.77,62.85-51.79,119.3.83,47.75,20.92,74.8,55.14,74.21,34.22-.59,53.37-28.32,52.54-76.07-.98-56.46-39.84-117.72-55.88-117.44Z"/>
        </g>
        <path id="blub-stroke" class="cls-5" d="m86.91,419.25c-37.88.65-61.01-29.29-61.89-80.09-.89-51.48,32.94-123,58.37-123.44,25.44-.44,61.71,69.88,62.6,121.35.88,50.8-21.21,81.53-59.09,82.18Zm-3.35-194.12c-15.14.26-49.79,59.97-48.86,113.86.79,45.58,19.76,71.4,52.05,70.84s50.36-27.02,49.57-72.6c-.93-53.89-37.62-112.36-52.76-112.1Z"/>
        <path class="cls-18" d="m108.65,264.3c4.45,12.13,7.99,28.43-7.62,28.15-5.5-.1-10.77-8.37-13.74-20.92-3.28-13.86-4-24.77,3.25-27.28,6.28-2.18,13.71,8,18.12,20.05Z"/>
      </g>
    </g>
    <g class="cls-3">
      <path class="cls-10" d="m134.02,59.98v15.6h-28.2v12.4h20.8v14.9h-20.8v27.6h-19.6V59.98h47.8Z"/>
      <path class="cls-10" d="m161.92,59.98v70.5h-19.6V59.98h19.6Z"/>
      <path class="cls-10" d="m238.42,130.48h-19.6l-26.1-39.4v39.4h-19.6V59.98h19.6l26.1,39.9v-39.9h19.6v70.5Z"/>
      <path class="cls-10" d="m296.97,64.43c5.57,2.97,9.85,7.12,12.85,12.45,3,5.33,4.5,11.43,4.5,18.3s-1.52,12.87-4.55,18.2c-3.03,5.33-7.33,9.52-12.9,12.55-5.57,3.03-12.02,4.55-19.35,4.55h-27.9V59.98h27.9c7.4,0,13.88,1.48,19.45,4.45Zm-7.45,44.05c3.27-3.13,4.9-7.57,4.9-13.3s-1.63-10.28-4.9-13.45c-3.27-3.17-7.77-4.75-13.5-4.75h-6.8v36.2h6.8c5.73,0,10.23-1.57,13.5-4.7Z"/>
      <path class="cls-10" d="m406.32,59.98l-24.8,48.1v22.4h-19.7v-22.4l-24.8-48.1h22.4l12.4,27.2,12.4-27.2h22.1Z"/>
      <path class="cls-10" d="m427.92,126.53c-5.53-3.1-9.92-7.4-13.15-12.9-3.23-5.5-4.85-11.72-4.85-18.65s1.62-13.15,4.85-18.65c3.23-5.5,7.62-9.78,13.15-12.85,5.53-3.07,11.6-4.6,18.2-4.6s12.75,1.53,18.25,4.6c5.5,3.07,9.85,7.35,13.05,12.85,3.2,5.5,4.8,11.72,4.8,18.65s-1.6,13.15-4.8,18.65c-3.2,5.5-7.57,9.8-13.1,12.9-5.53,3.1-11.6,4.65-18.2,4.65s-12.67-1.55-18.2-4.65Zm30.05-18.45c2.9-3.27,4.35-7.63,4.35-13.1s-1.45-10.02-4.35-13.25c-2.9-3.23-6.85-4.85-11.85-4.85s-9.03,1.62-11.9,4.85c-2.87,3.23-4.3,7.65-4.3,13.25s1.43,9.92,4.3,13.15c2.87,3.23,6.83,4.85,11.9,4.85s8.95-1.63,11.85-4.9Z"/>
      <path class="cls-10" d="m510.22,59.98v40.9c0,3.8.88,6.73,2.65,8.8,1.77,2.07,4.45,3.1,8.05,3.1s6.32-1.05,8.15-3.15c1.83-2.1,2.75-5.02,2.75-8.75v-40.9h19.6v40.9c0,6.47-1.37,11.98-4.1,16.55-2.73,4.57-6.45,8-11.15,10.3s-9.92,3.45-15.65,3.45-10.85-1.15-15.35-3.45-8.03-5.72-10.6-10.25c-2.57-4.53-3.85-10.07-3.85-16.6v-40.9h19.5Z"/>
      <path class="cls-10" d="m597.92,130.48l-14-26h-2.1v26h-19.6V59.98h30.9c5.67,0,10.47.98,14.4,2.95,3.93,1.97,6.9,4.67,8.9,8.1,2,3.43,3,7.28,3,11.55,0,4.8-1.32,9.02-3.95,12.65-2.63,3.63-6.48,6.22-11.55,7.75l15.9,27.5h-21.9Zm-16.1-39.4h9.7c2.67,0,4.67-.63,6-1.9,1.33-1.27,2-3.1,2-5.5,0-2.27-.68-4.05-2.05-5.35-1.37-1.3-3.35-1.95-5.95-1.95h-9.7v14.7Z"/>
    </g>
    <g>
      <path class="cls-18" d="m385.14,143.79v84.6h-23.52v-84.6h23.52Z"/>
      <path class="cls-18" d="m455.4,149.13c6.68,3.56,11.82,8.54,15.42,14.94,3.6,6.4,5.4,13.72,5.4,21.96s-1.82,15.44-5.46,21.84c-3.64,6.4-8.8,11.42-15.48,15.06-6.68,3.64-14.42,5.46-23.22,5.46h-33.48v-84.6h33.48c8.88,0,16.66,1.78,23.34,5.34Zm-8.94,52.86c3.92-3.76,5.88-9.08,5.88-15.96s-1.96-12.34-5.88-16.14c-3.92-3.8-9.32-5.7-16.2-5.7h-8.16v43.44h8.16c6.88,0,12.28-1.88,16.2-5.64Z"/>
      <path class="cls-18" d="m510.3,162.63v13.8h27v17.88h-27v15.24h30.6v18.84h-54.12v-84.6h54.12v18.84h-30.6Z"/>
      <path class="cls-18" d="m606.05,214.59h-30l-4.56,13.8h-24.72l30.84-84.6h27.12l30.72,84.6h-24.84l-4.56-13.8Zm-5.88-18l-9.12-27.36-9,27.36h18.12Z"/>
    </g>
  </g>
  <g id="Layer_1_copy" data-name="Layer 1 copy">
    <text class="cls-4" transform="translate(622.44 584.13) rotate(-.99)"><tspan x="0" y="0" xml:space="preserve">                    </tspan></text>
  </g>
</svg>