<?xml version="1.0" encoding="UTF-8"?>
<svg id="Layer_1_copy" data-name="Layer 1 copy" xmlns="http://www.w3.org/2000/svg" viewBox="0 0 872 731.75">
  <defs>
    <style>
      .cls-1 {
        fill: #939393;
      }

      .cls-2 {
        fill: #e07ec2;
      }

      .cls-3 {
        isolation: isolate;
      }

      .cls-4 {
        fill: #3e3e3e;
      }

      .cls-5 {
        fill: #4d4d4d;
      }

      .cls-6 {
        fill: #ddedeb;
        opacity: .45;
      }

      .cls-7 {
        fill: #e07e1b;
      }

      .cls-8 {
        fill: #662d91;
      }

      .cls-9 {
        fill: #333;
      }

      .cls-10 {
        fill: #f7efe7;
      }

      .cls-11 {
        fill: gray;
      }

      .cls-12 {
        fill: #efcee5;
      }

      .cls-13 {
        fill: #fce0bb;
      }

      .cls-14 {
        fill: #a0249d;
      }

      .cls-15 {
        fill: #f9de6b;
        stroke: #3e3e3e;
        stroke-miterlimit: 10;
        stroke-width: 8px;
      }

      .cls-16 {
        fill: #b069b2;
      }

      .cls-17 {
        fill: #fbb03b;
      }

      .cls-18 {
        fill: #777776;
      }

      .cls-19 {
        fill: #666;
      }
    </style>
  </defs>
  <g id="Layer_12" data-name="Layer 12">
    <g>
      <g>
        <rect class="cls-1" x="426.09" y="543.6" width="31.49" height="43.25"/>
        <g>
          <path class="cls-9" d="m420.2,581.71h42.37c.97,0,1.76-.95,1.76-2.13v-2.49c0-1.18-.79-2.13-1.76-2.13h-42.37c-.97,0-1.76.95-1.76,2.13v2.49c0,1.18.79,2.13,1.76,2.13Z"/>
          <path class="cls-9" d="m420.2,569.96h42.37c.97,0,1.76-.71,1.76-1.58v-3.31c0-.87-.79-1.58-1.76-1.58h-42.37c-.97,0-1.76.71-1.76,1.58v3.31c0,.87.79,1.58,1.76,1.58Z"/>
          <path class="cls-9" d="m434.06,599.25h15.8c.6,0,1.17-.28,1.54-.75l7.15-9.28c.96-1.24.05-3.03-1.54-3.03h-30.34c-1.6,0-2.5,1.81-1.52,3.05l7.4,9.28c.36.46.92.73,1.52.73Z"/>
          <path class="cls-9" d="m420.2,558.58h42.37c.97,0,1.76-.69,1.76-1.54v-3.48c0-.85-.79-1.54-1.76-1.54h-42.37c-.97,0-1.76.69-1.76,1.54v3.48c0,.85.79,1.54,1.76,1.54Z"/>
        </g>
        <path class="cls-9" d="m457.35,543.7h-30.18c-29.86,0-30.02-35.29-30.02-47.2l-12.06-118.28v-.19c0-26.5,18.88-48.07,42.08-48.07h30.18c23.2,0,42.08,21.56,42.08,48.07l-.02.4-12.84,118.08c-.02,24.54-3.61,47.19-29.22,47.19Zm-64.82-165.85l12.06,118.27v.19c0,27.64,6.96,39.96,22.58,39.96h30.18c16.08,0,21.78-10.46,21.78-39.96l.02-.4,12.84-118.07c-.09-22.31-15.6-40.43-34.64-40.43h-30.18c-19.05,0-34.55,18.13-34.64,40.45Z"/>
        <g>
          <path class="cls-2" d="m481.1,497.16l13.6-121.03c-.1-22.87-16.52-41.45-36.7-41.45h-31.98c-20.18,0-36.61,18.58-36.7,41.46l12.77,121.23v.19c0,28.33,7.38,40.96,23.93,40.96h31.98c17.04,0,23.08-10.72,23.08-40.96l.02-.41Z"/>
          <path class="cls-9" d="m486.32,496.97l12.84-117.92.02-.4c0-26.47-18.88-48-42.08-48h-30.18c-23.2,0-42.08,21.53-42.08,48v.19l12.06,118.12c0,11.9.16,47.14,30.02,47.14h30.18c25.61,0,29.2-22.62,29.22-47.13Zm-29.22,39.7h-30.18c-15.62,0-22.58-12.31-22.58-39.91v-.19l-12.06-118.12c.08-22.29,15.59-40.39,34.64-40.39h30.18c19.04,0,34.55,18.1,34.64,40.38l-12.84,117.92-.02.4c0,29.46-5.7,39.91-21.78,39.91Z"/>
        </g>
      </g>
      <path class="cls-12" d="m461.23,410.65l-4.27-.23c-4.7-.25-6.85-5.39-6.52-11.52l-.14-24.21c.33-6.13,4.44-10.93,9.13-10.68l4.27.23c4.7.25,8.27,5.47,7.95,11.59l-2.05,25.02c-.35,6.5-3.68,10.04-8.37,9.79Z"/>
    </g>
  </g>
  <g id="Layer_14" data-name="Layer 14">
    <g>
      <polygon class="cls-19" points="601.05 679.4 601.05 665.81 576.33 665.89 576.33 679.4 576.33 681.67 576.33 686.68 580.57 686.68 580.57 702.85 591.56 702.85 596.81 702.85 596.81 686.68 596.99 686.68 601.05 686.68 601.05 679.4 601.05 679.4"/>
      <path class="cls-9" d="m612.03,660.17h-47.52c-.58,0-1.05.68-1.05,1.52v3c0,1,.56,1.82,1.26,1.81l12.43-.02,23.79-.04,10.9-.02c.79,0,1.42-.92,1.42-2.05v-2.44c0-.97-.55-1.76-1.22-1.76Z"/>
      <path class="cls-9" d="m606.62,672.15h-36.33c-.63,0-1.14.51-1.14,1.14v4.58c0,.83.67,1.5,1.5,1.5h35.78c1.23,0,2.23-1,2.23-2.23v-2.93c0-1.13-.92-2.05-2.05-2.05Z"/>
      <path class="cls-9" d="m602.76,685.35h-26.63c-.87,0-1.57.7-1.57,1.57v3.95c0,.93.76,1.69,1.69,1.69h26.66c.53,0,.95-.43.95-.95v-5.15c0-.61-.5-1.11-1.11-1.11Z"/>
      <path class="cls-9" d="m601.02,697.24h-23.13c-.48,0-.86.39-.86.86v4.76c0,.49.4.89.89.89h5.74v2.77c0,.73.59,1.32,1.32,1.32h9.24c.5,0,.9-.4.9-.9v-3.19h5.31c.73,0,1.32-.59,1.32-1.32v-4.46c0-.4-.33-.73-.73-.73Z"/>
      <path class="cls-15" d="m606.62,469.23c-15.77-10.01-18.19-15.1-23.73-14.56-1.77.17-2.29.77-13.97,10.99-2.43,2.13-4.62,4.03-6.49,5.67-31.91,12.62-46.78,48.37-46.77,76.96,0,3.34.2,6.71.61,10.07,1.97,16.18,8.71,32.14,20.64,44,4.59,5.29,9.66,10.19,14.32,14.31,3.04,2.69,5.9,5.05,8.33,6.99,4.4,3.5,7.41,5.59,7.52,5.67l1.5,1.04v20.97l38.16-.04v-20.97l1.5-1.04c.12-.08,3.18-2.22,7.64-5.79,2.48-1.98,5.38-4.39,8.46-7.14,5.04-4.5,10.54-9.88,15.37-15.69,11.04-11.8,17.26-27.24,19.05-42.86.36-3.18.55-6.37.55-9.54,0-30.38-16.57-68.84-52.69-79.04Z"/>
      <circle class="cls-10" cx="613.95" cy="513.62" r="17.53"/>
    </g>
    <g>
      <rect class="cls-18" x="243.77" y="626.46" width="20.71" height="38.83" rx="7.73" ry="7.73"/>
      <path class="cls-8" d="m254.44,444.62c-46.91.19-68.27,39.85-68.27,76.63,0,3.49.19,7,.58,10.5,1.87,16.87,8.28,33.5,19.62,45.86,4.36,5.52,9.18,10.62,13.61,14.92,2.89,2.8,5.6,5.27,7.92,7.28,4.18,3.65,7.04,5.83,7.15,5.92l1.43,1.08v21.86h6.28s22.5-.03,22.5-.03h7.41s.07-7.42.07-7.42v-14.45l1.42-1.08c.11-.08,3.02-2.32,7.26-6.04,2.35-2.06,5.11-4.58,8.04-7.44,4.79-4.69,10.02-10.3,14.61-16.36,10.49-12.3,16.41-28.4,18.11-44.68.35-3.32.52-6.64.52-9.94,0-36.78-21.36-76.44-68.27-76.61Z"/>
      <path class="cls-4" d="m270.68,638.18l-6.2-.06-21.35-.21-6-.06c-1.16-.01-2.11.92-2.12,2.08l-.03,2.7c-.01,1.16.92,2.11,2.08,2.12l6.06.06,21.35.21,6.14.06c1.16.01,2.11-.92,2.12-2.08l.03-2.7c.01-1.16-.92-2.11-2.08-2.12Z"/>
      <path class="cls-4" d="m266.09,650.65l-1.71-.02-21.91-.21v.09h-.49c-1.06-.02-1.93.84-1.94,1.9l-.03,3.05c-.01,1.06.84,1.93,1.9,1.94h.56v.1l21.91.21,1.64.02c1.09.01,1.98-.86,1.99-1.95l.03-3.13c.01-1.09-.86-1.98-1.95-1.99Z"/>
      <path class="cls-4" d="m263.97,662.08h-.57s-19.14-.19-19.14-.19c-.06,0-.12.01-.18.02-1,.08-1.79.9-1.8,1.92l-.02,2.31c-.01,1.08.85,1.96,1.93,1.97l2.43.02c1.08.01,1.94.89,1.93,1.97-.01,1.08.85,1.96,1.93,1.97l7.04.07c1.08.01,1.96-.85,1.97-1.93.01-1.08.89-1.94,1.97-1.93l2.43.02c1.08.01,1.96-.85,1.97-1.93l.02-2.31c.01-1.08-.85-1.96-1.93-1.97Z"/>
      <path class="cls-4" d="m310.04,465.52c-13.14-16.83-32.01-25.88-54.57-26.19h-.02c-22.57-.13-41.61,8.56-55.08,25.13-11.84,14.57-18.48,34.21-18.68,55.3-.16,16.66,3.71,32.49,11.05,45.71,10.25,19.65,30.91,37.13,36.54,41.67l-.16,16.73-.08,8.16,14.1.12,21.35.18,13.97.12.08-8.58.16-16.3c6.14-4.78,30.03-24.29,39.53-45.58,6-12.08,9.28-26.1,9.42-40.82.2-21.08-6.05-40.84-17.6-55.65Zm8.46,64.82c-1.62,15.44-7.23,30.72-17.18,42.39-4.35,5.74-9.31,11.07-13.86,15.52-2.78,2.72-5.4,5.11-7.63,7.06-4.03,3.53-6.79,5.65-6.89,5.73l-1.35,1.03v13.71l-.07,7.04h-7.03s-21.35.03-21.35.03h-5.96s0-20.73,0-20.73l-1.36-1.03c-.1-.08-2.81-2.15-6.78-5.61-2.19-1.91-4.77-4.25-7.51-6.91-4.2-4.08-8.78-8.92-12.91-14.16-10.76-11.73-16.85-27.51-18.62-43.52-.37-3.32-.55-6.66-.55-9.97,0-34.9,20.27-72.54,64.78-72.72,44.51.17,64.78,37.8,64.78,72.7,0,3.13-.17,6.29-.49,9.43Z"/>
      <ellipse class="cls-6" cx="282.74" cy="502.93" rx="19.25" ry="23.13"/>
    </g>
    <g>
      <rect class="cls-18" x="717.71" y="516.16" width="24.4" height="28.91"/>
      <rect class="cls-18" x="721.01" y="517.54" width="17.81" height="38.7"/>
      <path id="blub" class="cls-11" d="m750.31,533.54h-40.63c-1.78,0-3.23-1.44-3.23-3.23v-2.24c0-1.78,1.44-3.23,3.23-3.23h40.63c1.78,0,3.23,1.44,3.23,3.23v2.24c0,1.78-1.44,3.23-3.23,3.23Zm-4.9,7.2h-30.84c-1.78,0-3.23,1.44-3.23,3.23v2.24c0,1.78,1.44,3.23,3.23,3.23h30.84c1.78,0,3.23-1.44,3.23-3.23v-2.24c0-1.78-1.44-3.23-3.23-3.23Zm-5.55,12.93h-19.73c-1.78,0-3.23,1.44-3.23,3.23v2.24c0,1.78,1.44,3.23,3.23,3.23h19.73c1.78,0,3.23-1.44,3.23-3.23v-2.24c0-1.78-1.44-3.23-3.23-3.23Zm-6.22,8.69h-7.29c-1.34,0-2.43,1.09-2.43,2.43v.6c0,1.34,1.09,2.43,2.43,2.43h7.29c1.34,0,2.43-1.09,2.43-2.43v-.6c0-1.34-1.09-2.43-2.43-2.43Zm-34.75-44.76v-31.37c-9.56-7.64-53.64-44.72-53.64-78.51,0-47.02,37.85-85.27,84.38-85.27,46.53,0,84.38,38.25,84.38,85.27,0,33.72-43.94,70.8-53.46,78.45v31.36s-61.65.08-61.65.08Zm30.74-186.29c-41.69,0-75.61,34.28-75.61,76.41,0,32.69,51.39,72.42,51.9,72.81l1.74,1.33v26.87s44.12-.05,44.12-.05v-26.87s1.73-1.33,1.73-1.33c.52-.4,51.73-40.12,51.73-72.76,0-42.13-33.92-76.41-75.61-76.41Z"/>
      <path id="blub-2" data-name="blub" class="cls-5" d="m750.57,533.54h-41.14c-1.64,0-2.97-1.33-2.97-2.97v-2.75c0-1.64,1.33-2.97,2.97-2.97h41.14c1.64,0,2.97,1.33,2.97,2.97v2.75c0,1.64-1.33,2.97-2.97,2.97Zm-4.9,7.2h-31.35c-1.64,0-2.97,1.33-2.97,2.97v2.75c0,1.64,1.33,2.97,2.97,2.97h31.35c1.64,0,2.97-1.33,2.97-2.97v-2.75c0-1.64-1.33-2.97-2.97-2.97Zm-5.55,12.93h-20.24c-1.64,0-2.97,1.33-2.97,2.97v2.75c0,1.64,1.33,2.97,2.97,2.97h20.24c1.64,0,2.97-1.33,2.97-2.97v-2.75c0-1.64-1.33-2.97-2.97-2.97Zm-6.48,8.69h-7.29c-1.34,0-2.43,1.09-2.43,2.43v.6c0,1.34,1.09,2.43,2.43,2.43h7.29c1.34,0,2.43-1.09,2.43-2.43v-.6c0-1.34-1.09-2.43-2.43-2.43Zm-34.75-44.76v-31.37c-9.56-7.64-53.64-44.72-53.64-78.51,0-47.02,37.85-85.27,84.38-85.27,46.53,0,84.38,38.25,84.38,85.27,0,33.72-43.94,70.8-53.46,78.45v31.36s-61.65.08-61.65.08Zm30.74-186.29c-41.69,0-75.61,34.28-75.61,76.41,0,32.69,51.39,72.42,51.9,72.81l1.74,1.33v26.87s44.12-.05,44.12-.05v-26.87s1.73-1.33,1.73-1.33c.52-.4,51.73-40.12,51.73-72.76,0-42.13-33.92-76.41-75.61-76.41Z"/>
      <path class="cls-14" d="m730.05,325.19c-44.84,0-81.33,36.87-81.33,82.18,0,35.17,55.27,77.89,55.83,78.32l1.87,1.43v28.9s47.45-.06,47.45-.06v-28.9s1.86-1.43,1.86-1.43c.56-.43,55.64-43.16,55.64-78.25,0-45.31-36.48-82.18-81.32-82.18Z"/>
      <rect class="cls-4" x="723.93" y="562.36" width="12.14" height="5.46" rx="1.75" ry="1.75"/>
      <path class="cls-4" d="m716.9,559.55c0,1.55,1.26,2.81,2.81,2.81h4.21s12.14,0,12.14,0h4.21c1.55,0,2.81-1.26,2.81-2.81v-3.07c0-1.55-1.26-2.81-2.81-2.81h-20.56c-1.55,0-2.81,1.26-2.81,2.81v3.07Z"/>
      <rect class="cls-4" x="711.35" y="540.74" width="37.29" height="8.69" rx="3.09" ry="3.09"/>
      <rect class="cls-4" x="706.45" y="524.85" width="47.09" height="8.69" rx="3.04" ry="3.04"/>
      <path class="cls-4" d="m729.62,322.46c-46.53,0-84.38,38.25-84.38,85.27,0,33.79,44.09,70.87,53.64,78.51v31.37s61.65-.08,61.65-.08v-31.36c9.52-7.64,53.46-44.72,53.46-78.45,0-47.02-37.85-85.27-84.38-85.27Zm23.88,158.02l-1.73,1.33v26.87s-44.12.05-44.12.05v-26.87s-1.74-1.33-1.74-1.33c-.52-.4-51.9-40.12-51.9-72.81,0-42.13,33.92-76.41,75.61-76.41,41.69,0,75.61,34.28,75.61,76.41,0,32.63-51.21,72.36-51.73,72.76Z"/>
      <ellipse class="cls-16" cx="759.59" cy="374.11" rx="20.78" ry="20.99"/>
    </g>
    <g>
      <rect class="cls-18" x="278.45" y="339.16" width="48.12" height="60.62"/>
      <path id="blub-3" data-name="blub" class="cls-4" d="m317.8,413.4h-32.56c-1.04,0-2.02-.52-2.6-1.39l-7.56-11.34c-1.38-2.07.1-4.85,2.6-4.85h47.68c2.49,0,3.98,2.78,2.6,4.85l-7.56,11.34c-.58.87-1.55,1.39-2.6,1.39Zm9.24-32.24h-51.03c-2.3,0-4.16,1.86-4.16,4.16v.48c0,2.3,1.86,4.16,4.16,4.16h51.03c2.3,0,4.16-1.86,4.16-4.16v-.48c0-2.3-1.86-4.16-4.16-4.16Zm0-14.65h-51.03c-2.3,0-4.16,1.86-4.16,4.16v.48c0,2.3,1.86,4.16,4.16,4.16h51.03c2.3,0,4.16-1.86,4.16-4.16v-.48c0-2.3-1.86-4.16-4.16-4.16Zm2.54-14.65h-53.57c-2.3,0-4.16,1.86-4.16,4.16v.48c0,2.3,1.86,4.16,4.16,4.16h51.03c2.3,0,4.16-1.86,4.16-4.16v-3.02c0-.89-.72-1.61-1.61-1.61Zm6.63-6.27h-68.87v-68.69c-30.57-10.37-53.25-33.35-53.25-54.4,0-19.32,40.87-51.29,87.45-51.29s87.42,31.97,87.42,51.29c0,20.86-22.47,43.77-52.75,54.23v68.86Zm-60.08-8.79h51.29v-66.48l3.09-.96c22.68-7.08,47.07-25.5,49.48-43.93h-156.91c2.4,18.6,27.04,37.06,49.95,44.06l3.11.95v66.35Zm-51.44-120.16h153.67c-7.59-14.07-38.26-36.63-76.82-36.63s-69.26,22.56-76.85,36.63Z"/>
      <path class="cls-17" d="m380.44,222.45c0-9.94-14.68-23.99-36.05-33-12.2-5.55-26.84-9.45-42.85-9.45-17.94,0-34.17,4.88-47.17,11.52-18.85,8.99-31.45,21.72-31.45,30.93,0,.99.08,1.98.21,2.98h-.06c2.4,18.6,27.04,37.06,49.95,44.06l3.11.95v66.35h51.29v-66.48l3.09-.96c15.18-4.74,31.12-14.57,40.73-26.07,5.84-6.69,9.21-13.9,9.21-20.84Z"/>
      <ellipse class="cls-13" cx="342.45" cy="227.81" rx="22.71" ry="13.66"/>
    </g>
    <g>
      <rect class="cls-18" x="111.48" y="422.1" width="30.62" height="73.61" rx="12" ry="12"/>
      <path id="whole-blub" class="cls-4" d="m155.92,462.5l-59.22,1.02c-1.82.03-3.34-1.43-3.37-3.26l-.24-13.76c-.03-1.82,1.43-3.34,3.26-3.37l59.22-1.02c1.82-.03,3.34,1.43,3.37,3.26l.24,13.76c.03,1.82-1.43,3.34-3.26,3.37Zm-48.32,27.86s4.89,10.11,10.65,10.01l17.4-.3c5.76-.1,10.3-10.37,10.3-10.37m4.04-8.37l-.17-9.61c-.02-1.27-1.08-2.3-2.35-2.27l-42.1.73c-1.27.02-2.3,1.08-2.27,2.35l.17,9.61c.02,1.27,1.08,2.3,2.35,2.27l42.1-.73c1.27-.02,2.3-1.08,2.27-2.35Zm-24.14-44.6c-37.12.64-59.79-28.7-60.65-78.49-.87-50.45,32.28-120.55,57.21-120.98s60.48,68.48,61.35,118.93c.86,49.79-20.79,79.9-57.91,80.54Zm-3.29-190.24c-14.84.26-48.79,58.78-47.88,111.59.77,44.67,19.36,69.97,51.01,69.43,31.65-.55,49.35-26.48,48.58-71.15-.91-52.81-36.87-110.12-51.71-109.87Z"/>
      <path id="base" class="cls-4" d="m155.92,462.5l-59.22,1.02c-1.82.03-3.34-1.43-3.37-3.26l-.24-13.76c-.03-1.82,1.43-3.34,3.26-3.37l59.22-1.02c1.82-.03,3.34,1.43,3.37,3.26l.24,13.76c.03,1.82-1.43,3.34-3.26,3.37Zm-48.32,27.86s4.89,10.11,10.65,10.01l17.4-.3c5.76-.1,10.3-10.37,10.3-10.37m4.04-8.37l-.17-9.61c-.02-1.27-1.08-2.3-2.35-2.27l-42.1.73c-1.27.02-2.3,1.08-2.27,2.35l.17,9.61c.02,1.27,1.08,2.3,2.35,2.27l42.1-.73c1.27-.02,2.3-1.08,2.27-2.35Z"/>
      <g id="blub-fill">
        <path class="cls-7" d="m121.55,243.25c-15.73.27-51.72,61.59-50.76,116.92.81,46.8,20.5,73.31,54.04,72.73,33.53-.58,52.3-27.75,51.49-74.55-.96-55.33-39.04-115.37-54.77-115.1Z"/>
      </g>
      <path id="blub-stroke" class="cls-4" d="m125.85,436.72c-37.12.64-59.79-28.7-60.65-78.49-.87-50.45,32.28-120.55,57.21-120.98s60.48,68.48,61.35,118.93c.86,49.79-20.79,79.9-57.91,80.54Zm-3.29-190.24c-14.84.26-48.79,58.78-47.88,111.59.77,44.67,19.36,69.97,51.01,69.43,31.65-.55,49.35-26.48,48.58-71.15-.91-52.81-36.87-110.12-51.71-109.87Z"/>
      <path class="cls-17" d="m147.16,284.86c4.36,11.89,7.83,27.86-7.47,27.59-5.39-.09-10.56-8.2-13.47-20.5-3.22-13.58-3.92-24.28,3.18-26.74,6.16-2.13,13.43,7.84,17.76,19.65Z"/>
    </g>
  </g>
  <g>
    <g class="cls-3">
      <path class="cls-9" d="m125.48,36.94v22.35h-40.4v17.76h29.8v21.35h-29.8v39.54h-28.08V36.94h68.48Z"/>
      <path class="cls-9" d="m165.44,36.94v100.99h-28.08V36.94h28.08Z"/>
      <path class="cls-9" d="m275.03,137.94h-28.08l-37.39-56.44v56.44h-28.08V36.94h28.08l37.39,57.16v-57.16h28.08v100.99Z"/>
      <path class="cls-9" d="m358.91,43.32c7.97,4.25,14.11,10.19,18.41,17.83,4.3,7.64,6.45,16.38,6.45,26.22s-2.17,18.43-6.52,26.07c-4.35,7.64-10.51,13.63-18.48,17.98-7.98,4.35-17.22,6.52-27.72,6.52h-39.97V36.94h39.97c10.6,0,19.89,2.13,27.86,6.37Zm-10.67,63.1c4.68-4.49,7.02-10.84,7.02-19.05s-2.34-14.73-7.02-19.27c-4.68-4.54-11.13-6.8-19.34-6.8h-9.74v51.86h9.74c8.21,0,14.66-2.24,19.34-6.73Z"/>
      <path class="cls-9" d="m515.55,36.94l-35.53,68.9v32.09h-28.22v-32.09l-35.53-68.9h32.09l17.76,38.96,17.76-38.96h31.66Z"/>
      <path class="cls-9" d="m546.49,132.28c-7.93-4.44-14.21-10.6-18.84-18.48-4.63-7.88-6.95-16.78-6.95-26.72s2.31-18.84,6.95-26.72c4.63-7.88,10.91-14.01,18.84-18.41,7.93-4.39,16.62-6.59,26.07-6.59s18.26,2.2,26.14,6.59c7.88,4.39,14.11,10.53,18.7,18.41,4.58,7.88,6.88,16.78,6.88,26.72s-2.29,18.84-6.88,26.72c-4.59,7.88-10.84,14.04-18.77,18.48-7.93,4.44-16.62,6.66-26.07,6.66s-18.15-2.22-26.07-6.66Zm43.05-26.43c4.16-4.68,6.23-10.93,6.23-18.77s-2.08-14.35-6.23-18.98c-4.15-4.63-9.81-6.95-16.97-6.95s-12.94,2.32-17.05,6.95c-4.11,4.63-6.16,10.96-6.16,18.98s2.05,14.21,6.16,18.84c4.11,4.63,9.79,6.95,17.05,6.95s12.82-2.34,16.97-7.02Z"/>
      <path class="cls-9" d="m664.39,36.94v58.59c0,5.44,1.26,9.65,3.8,12.61,2.53,2.96,6.37,4.44,11.53,4.44s9.05-1.5,11.67-4.51c2.63-3.01,3.94-7.18,3.94-12.53v-58.59h28.08v58.59c0,9.26-1.96,17.17-5.87,23.71-3.92,6.54-9.24,11.46-15.97,14.76-6.73,3.29-14.21,4.94-22.42,4.94s-15.54-1.65-21.99-4.94c-6.45-3.3-11.51-8.19-15.19-14.68-3.68-6.49-5.52-14.42-5.52-23.78v-58.59h27.94Z"/>
      <path class="cls-9" d="m790.02,137.94l-20.06-37.25h-3.01v37.25h-28.08V36.94h44.27c8.12,0,14.99,1.41,20.63,4.22,5.63,2.82,9.89,6.69,12.75,11.6,2.87,4.92,4.3,10.43,4.3,16.55,0,6.88-1.89,12.92-5.66,18.12-3.77,5.21-9.29,8.91-16.55,11.1l22.78,39.39h-31.37Zm-23.06-56.44h13.9c3.82,0,6.68-.91,8.59-2.72,1.91-1.81,2.87-4.44,2.87-7.88,0-3.25-.98-5.8-2.94-7.66-1.96-1.86-4.8-2.79-8.52-2.79h-13.9v21.06Z"/>
    </g>
    <g>
      <path class="cls-17" d="m481.12,173.24v118.59h-32.97v-118.59h32.97Z"/>
      <path class="cls-17" d="m579.61,180.72c9.36,4.99,16.57,11.97,21.61,20.94,5.05,8.97,7.57,19.23,7.57,30.78s-2.55,21.64-7.65,30.61c-5.1,8.97-12.34,16.01-21.7,21.11-9.36,5.1-20.21,7.65-32.55,7.65h-46.93v-118.59h46.93c12.45,0,23.35,2.5,32.72,7.49Zm-12.53,74.1c5.49-5.27,8.24-12.73,8.24-22.37s-2.75-17.3-8.24-22.62c-5.49-5.33-13.06-7.99-22.71-7.99h-11.44v60.89h11.44c9.64,0,17.21-2.63,22.71-7.91Z"/>
      <path class="cls-17" d="m656.56,199.65v19.34h37.85v25.06h-37.85v21.36h42.89v26.41h-75.86v-118.59h75.86v26.41h-42.89Z"/>
      <path class="cls-17" d="m790.79,272.48h-42.05l-6.39,19.34h-34.65l43.23-118.59h38.01l43.06,118.59h-34.82l-6.39-19.34Zm-8.24-25.23l-12.78-38.35-12.61,38.35h25.4Z"/>
    </g>
  </g>
</svg>