<?xml version="1.0" encoding="UTF-8"?>
<svg xmlns="http://www.w3.org/2000/svg" viewBox="0 0 1897 1096">
  <defs>
    <style>
      .cls-1 {
        fill: #939393;
      }

      .cls-2 {
        fill: #e07ec2;
      }

      .cls-3 {
        fill: #8ed6d6;
      }

      .cls-4 {
        isolation: isolate;
      }

      .cls-5 {
        fill: #3e3e3e;
      }

      .cls-6 {
        fill: #4d4d4d;
      }

      .cls-7 {
        fill: #ddedeb;
        opacity: .45;
      }

      .cls-8 {
        fill: #e07e1b;
      }

      .cls-9 {
        fill: #662d91;
      }

      .cls-10 {
        fill: #333;
      }

      .cls-11 {
        fill: #f7efe7;
      }

      .cls-12 {
        fill: gray;
      }

      .cls-13 {
        fill: #efcee5;
      }

      .cls-14 {
        fill: #fce0bb;
      }

      .cls-15 {
        fill: #a0249d;
      }

      .cls-16 {
        fill: #f9de6b;
        stroke: #333;
        stroke-miterlimit: 10;
        stroke-width: 11px;
      }

      .cls-17 {
        fill: #b069b2;
      }

      .cls-18 {
        fill: #7f7f7f;
      }

      .cls-19 {
        fill: #fbb03b;
      }

      .cls-20 {
        fill: #d2f7f7;
      }

      .cls-21 {
        fill: #777776;
      }

      .cls-22 {
        fill: #666;
      }
    </style>
  </defs>
  <g id="Layer_10" data-name="Layer 10">
    <g>
      <g>
        <rect class="cls-1" x="1067.34" y="970.54" width="46.66" height="64.08"/>
        <g>
          <path class="cls-10" d="m1058.61,1027.01h62.79c1.44,0,2.61-1.41,2.61-3.15v-3.69c0-1.74-1.17-3.15-2.61-3.15h-62.79c-1.44,0-2.61,1.41-2.61,3.15v3.69c0,1.74,1.17,3.15,2.61,3.15Z"/>
          <path class="cls-10" d="m1058.61,1009.6h62.79c1.44,0,2.61-1.05,2.61-2.34v-4.9c0-1.29-1.17-2.34-2.61-2.34h-62.79c-1.44,0-2.61,1.05-2.61,2.34v4.9c0,1.29,1.17,2.34,2.61,2.34Z"/>
          <path class="cls-10" d="m1079.14,1053h23.4c.89,0,1.74-.41,2.28-1.11l10.59-13.75c1.42-1.84.08-4.48-2.28-4.48h-44.96c-2.38,0-3.71,2.68-2.25,4.52l10.96,13.75c.54.68,1.37,1.07,2.25,1.07Z"/>
          <path class="cls-10" d="m1058.61,992.74h62.79c1.44,0,2.61-1.02,2.61-2.28v-5.15c0-1.26-1.17-2.28-2.61-2.28h-62.79c-1.44,0-2.61,1.02-2.61,2.28v5.15c0,1.26,1.17,2.28,2.61,2.28Z"/>
        </g>
        <path class="cls-10" d="m1113.65,970.7h-44.72c-44.25,0-44.48-52.3-44.48-69.94l-17.86-175.25v-.28c0-39.27,27.97-71.22,62.35-71.22h44.72c34.38,0,62.35,31.95,62.35,71.22l-.03.6-19.02,174.96c-.03,36.36-5.35,69.92-43.29,69.92Zm-96.05-245.75l17.86,175.25v.28c0,40.95,10.32,59.21,33.46,59.21h44.72c23.83,0,32.27-15.49,32.27-59.21l.03-.6,19.02-174.95c-.13-33.06-23.11-59.91-51.33-59.91h-44.72c-28.22,0-51.2,26.86-51.33,59.93Z"/>
        <g>
          <path class="cls-2" d="m1148.84,901.74l20.16-179.33c-.14-33.89-24.48-61.41-54.38-61.41h-47.38c-29.9,0-54.25,27.53-54.38,61.43l18.93,179.63v.29c0,41.97,10.93,60.69,35.45,60.69h47.38c25.24,0,34.19-15.88,34.19-60.69l.03-.61Z"/>
          <path class="cls-10" d="m1156.58,901.45l19.02-174.73.03-.59c0-39.22-27.97-71.13-62.35-71.13h-44.72c-34.38,0-62.35,31.91-62.35,71.13v.28l17.86,175.02c0,17.63.24,69.85,44.48,69.85h44.72c37.94,0,43.26-33.52,43.29-69.83Zm-43.29,58.83h-44.72c-23.14,0-33.46-18.24-33.46-59.13v-.28l-17.86-175.02c.13-33.03,23.1-59.85,51.33-59.85h44.72c28.22,0,51.19,26.81,51.33,59.83l-19.02,174.72-.03.59c0,43.66-8.44,59.13-32.27,59.13Z"/>
        </g>
      </g>
      <path class="cls-13" d="m1119.4,773.55l-6.33-.34c-6.96-.37-10.15-7.99-9.66-17.07l-.2-35.87c.48-9.08,6.57-16.2,13.53-15.83l6.33.34c6.96.37,12.26,8.1,11.77,17.18l-3.03,37.08c-.51,9.63-5.45,14.88-12.41,14.51Z"/>
    </g>
  </g>
  <g id="Layer_11" data-name="Layer 11">
    <g>
      <rect class="cls-21" x="852" y="634.98" width="74" height="93.23"/>
      <path id="blub" class="cls-5" d="m912.52,749.14h-50.08c-1.61,0-3.1-.8-3.99-2.14l-11.63-17.44c-2.13-3.19.16-7.46,3.99-7.46h73.33c3.83,0,6.12,4.27,3.99,7.46l-11.63,17.44c-.89,1.34-2.39,2.14-3.99,2.14Zm15.8-49.58h-81.67c-2.65,0-4.8,2.15-4.8,4.8v3.92c0,2.65,2.15,4.8,4.8,4.8h81.67c2.65,0,4.8-2.15,4.8-4.8v-3.92c0-2.65-2.15-4.8-4.8-4.8Zm0-22.54h-81.67c-2.65,0-4.8,2.15-4.8,4.8v3.92c0,2.65,2.15,4.8,4.8,4.8h81.67c2.65,0,4.8-2.15,4.8-4.8v-3.92c0-2.65-2.15-4.8-4.8-4.8Zm2.94-22.54h-84.61c-2.65,0-4.8,2.15-4.8,4.8v3.92c0,2.65,2.15,4.8,4.8,4.8h81.67c2.65,0,4.8-2.15,4.8-4.8v-6.86c0-1.03-.83-1.86-1.86-1.86Zm9.57-9.64h-105.92v-105.64c-47.02-15.95-81.9-51.29-81.9-83.66,0-29.72,62.86-78.88,134.5-78.88s134.45,49.16,134.45,78.88c0,32.08-34.55,67.31-81.13,83.41v105.9Zm-92.4-13.52h78.88v-102.24l4.74-1.48c34.88-10.89,72.39-39.22,76.09-67.56h-241.31c3.69,28.6,41.58,56.99,76.82,67.77l4.78,1.46v102.04Zm-79.11-184.8h236.34c-11.67-21.64-58.84-56.34-118.15-56.34s-106.51,34.7-118.19,56.34Z"/>
      <path class="cls-19" d="m1008.85,455.48c0-15.29-22.57-36.9-55.45-50.75-18.76-8.54-41.28-14.53-65.9-14.53-27.6,0-52.56,7.51-72.54,17.72-28.99,13.82-48.36,33.4-48.36,47.57,0,1.52.12,3.05.32,4.58h-.09c3.69,28.6,41.58,56.99,76.82,67.77l4.78,1.46v102.04h78.88v-102.24l4.74-1.48c23.35-7.29,47.86-22.4,62.64-40.09,8.98-10.29,14.17-21.38,14.17-32.05Z"/>
      <ellipse class="cls-14" cx="950.43" cy="463.72" rx="34.93" ry="21.02"/>
    </g>
  </g>
  <g id="Layer_5" data-name="Layer 5">
    <g>
      <rect class="cls-21" x="346.25" y="851.68" width="35.11" height="41.59"/>
      <rect class="cls-21" x="350.99" y="853.66" width="25.62" height="55.68"/>
      <path id="blub-2" data-name="blub" class="cls-12" d="m394.57,876.69h-61.29c-1.78,0-3.23-1.44-3.23-3.23v-6.05c0-1.78,1.44-3.23,3.23-3.23h61.29c1.78,0,3.23,1.44,3.23,3.23v6.05c0,1.78-1.44,3.23-3.23,3.23Zm-7.05,10.35h-47.2c-1.78,0-3.23,1.44-3.23,3.23v6.05c0,1.78,1.44,3.23,3.23,3.23h47.2c1.78,0,3.23-1.44,3.23-3.23v-6.05c0-1.78-1.44-3.23-3.23-3.23Zm-7.99,18.61h-31.22c-1.78,0-3.23,1.44-3.23,3.23v6.05c0,1.78,1.44,3.23,3.23,3.23h31.22c1.78,0,3.23-1.44,3.23-3.23v-6.05c0-1.78-1.44-3.23-3.23-3.23Zm-10.11,12.5h-11.01c-1.78,0-3.23,1.44-3.23,3.23v1.4c0,1.78,1.44,3.23,3.23,3.23h11.01c1.78,0,3.23-1.44,3.23-3.23v-1.4c0-1.78-1.44-3.23-3.23-3.23Zm-50.26-64.39v-45.13c-13.75-10.99-77.18-64.34-77.18-112.96,0-67.64,54.46-122.67,121.39-122.67,66.94,0,121.39,55.03,121.39,122.67,0,48.52-63.21,101.87-76.91,112.86v45.12s-88.7.11-88.7.11Zm44.22-268.01c-59.98,0-108.78,49.31-108.78,109.93,0,47.04,73.93,104.19,74.68,104.76l2.5,1.91v38.65s63.47-.07,63.47-.07v-38.66s2.49-1.91,2.49-1.91c.74-.57,74.42-57.73,74.42-104.67,0-60.61-48.8-109.93-108.78-109.93Z"/>
      <path id="blub-3" data-name="blub" class="cls-6" d="m394.83,876.69h-61.8c-1.64,0-2.97-1.33-2.97-2.97v-6.56c0-1.64,1.33-2.97,2.97-2.97h61.8c1.64,0,2.97,1.33,2.97,2.97v6.56c0,1.64-1.33,2.97-2.97,2.97Zm-7.05,10.35h-47.71c-1.64,0-2.97,1.33-2.97,2.97v6.56c0,1.64,1.33,2.97,2.97,2.97h47.71c1.64,0,2.97-1.33,2.97-2.97v-6.56c0-1.64-1.33-2.97-2.97-2.97Zm-7.99,18.61h-31.73c-1.64,0-2.97,1.33-2.97,2.97v6.56c0,1.64,1.33,2.97,2.97,2.97h31.73c1.64,0,2.97-1.33,2.97-2.97v-6.56c0-1.64-1.33-2.97-2.97-2.97Zm-10.11,12.5h-11.52c-1.64,0-2.97,1.33-2.97,2.97v1.91c0,1.64,1.33,2.97,2.97,2.97h11.52c1.64,0,2.97-1.33,2.97-2.97v-1.91c0-1.64-1.33-2.97-2.97-2.97Zm-50.51-64.39v-45.13c-13.75-10.99-77.18-64.34-77.18-112.96,0-67.64,54.46-122.67,121.39-122.67,66.94,0,121.39,55.03,121.39,122.67,0,48.52-63.21,101.87-76.91,112.86v45.12s-88.7.11-88.7.11Zm44.22-268.01c-59.98,0-108.78,49.31-108.78,109.93,0,47.04,73.93,104.19,74.68,104.76l2.5,1.91v38.65s63.47-.07,63.47-.07v-38.66s2.49-1.91,2.49-1.91c.74-.57,74.42-57.73,74.42-104.67,0-60.61-48.8-109.93-108.78-109.93Z"/>
      <path class="cls-15" d="m364,576.93c-64.51,0-117,53.04-117,118.23,0,50.59,79.51,112.06,80.32,112.68l2.69,2.06v41.58s68.27-.08,68.27-.08v-41.58s2.68-2.06,2.68-2.06c.8-.61,80.04-62.09,80.04-112.58,0-65.19-52.48-118.23-117-118.23Z"/>
      <rect class="cls-5" x="355.2" y="918.15" width="17.46" height="7.85" rx="2.52" ry="2.52"/>
      <path class="cls-5" d="m345.09,914.11c0,2.23,1.81,4.04,4.04,4.04h6.06s17.46,0,17.46,0h6.06c2.23,0,4.04-1.81,4.04-4.04v-4.41c0-2.23-1.81-4.04-4.04-4.04h-29.59c-2.23,0-4.04,1.81-4.04,4.04v4.41Z"/>
      <rect class="cls-5" x="337.1" y="887.04" width="53.65" height="12.5" rx="4.44" ry="4.44"/>
      <rect class="cls-5" x="330.06" y="864.18" width="67.74" height="12.5" rx="4.38" ry="4.38"/>
      <path class="cls-5" d="m363.39,573c-66.94,0-121.39,55.03-121.39,122.67,0,48.61,63.43,101.96,77.18,112.96v45.13s88.7-.11,88.7-.11v-45.12c13.7-10.99,76.91-64.34,76.91-112.86,0-67.64-54.45-122.67-121.39-122.67Zm34.36,227.35l-2.49,1.91v38.66s-63.47.07-63.47.07v-38.65s-2.5-1.91-2.5-1.91c-.75-.57-74.67-57.72-74.67-104.76,0-60.61,48.8-109.93,108.78-109.93,59.98,0,108.78,49.31,108.78,109.93,0,46.95-73.68,104.1-74.42,104.67Z"/>
      <ellipse class="cls-17" cx="406.5" cy="647.31" rx="29.89" ry="30.2"/>
    </g>
  </g>
  <g id="Layer_7" data-name="Layer 7">
    <g>
      <rect class="cls-18" x="678" y="875" width="54" height="124" rx="12" ry="12"/>
      <g>
        <path class="cls-10" d="m671.66,988h66.69c1.47,0,2.66-1.83,2.66-4.1v-1.81c0-2.26-1.19-4.1-2.66-4.1h-66.69c-1.47,0-2.66,1.83-2.66,4.1v1.81c0,2.26,1.19,4.1,2.66,4.1Z"/>
        <path class="cls-10" d="m670.72,973.92h68.06c1.5,0,2.72-1.27,2.72-2.84v-3.24c0-1.57-1.22-2.84-2.72-2.84h-68.06c-1.5,0-2.72,1.27-2.72,2.84v3.24c0,1.57,1.22,2.84,2.72,2.84Z"/>
        <path class="cls-10" d="m691.2,1007h26.98c.69,0,1.36-.25,1.85-.69l11.16-9.94c1.69-1.51.52-4.12-1.85-4.12h-49.69c-2.39,0-3.56,2.65-1.82,4.15l11.55,9.94c.49.42,1.14.66,1.82.66Z"/>
        <path class="cls-10" d="m671.14,960h67.22c1.73,0,3.14-1.51,3.14-3.36v-2.8c0-1.86-1.41-3.36-3.14-3.36h-67.22c-1.73,0-3.14,1.51-3.14,3.36v2.8c0,1.86,1.41,3.36,3.14,3.36Z"/>
        <path class="cls-22" d="m640,871.91c0,3.61.34,7.15.94,10.59.08.45.15.9.24,1.35,5.59,27.99,30.46,49.15,60.2,49.15h4.23c29.74,0,54.6-21.16,60.2-49.15.77-3.86,1.18-7.85,1.18-11.94v-4.91s-127,0-127,0v4.91Z"/>
        <path class="cls-3" d="m706.17,615.31h-4.33c-34.65,0-62.83,24.84-62.83,55.38v183.95s0,10.18,0,10.18v10.18s130,0,130,0v-10.04s0-.14,0-.14v-10.18s0-183.95,0-183.95c0-30.53-28.19-55.38-62.83-55.38Z"/>
        <path class="cls-10" d="m705.54,611.26h-4.08c-39.4,0-71.46,28.77-71.46,64.12v176.49s0,9.77,0,9.77v9.77s0,4.27,0,4.27c0,3.54.33,7,.95,10.38,2.28,12.51,8.6,23.82,17.72,32.79l9.19,11.18,11.55,14.06h69.09s11.12-14.06,11.12-14.06l9.45-11.94c8.72-8.85,14.76-19.87,16.98-32.03.62-3.38.95-6.85.95-10.38v-4.27s0-9.77,0-9.77v-9.77s0-176.49,0-176.49c0-35.36-32.06-64.12-71.46-64.12Zm59.21,250.39v.14s0,9.63,0,9.63v4.27c0,3.55-.4,7.02-1.14,10.38-5.4,24.34-29.38,42.75-58.07,42.75h-4.08c-28.69,0-52.67-18.41-58.07-42.75-.09-.39-.16-.78-.23-1.17-.59-2.99-.91-6.07-.91-9.21v-4.27s0-9.77,0-9.77v-9.77s0-176.49,0-176.49c0-29.3,26.56-53.13,59.21-53.13h4.08c32.65,0,59.21,23.83,59.21,53.13v176.49s0,9.77,0,9.77Z"/>
      </g>
      <path class="cls-20" d="m732.95,657.2h0c8.98.08,16.26,7.11,16.17,15.61l-.73,70.45c-.09,8.5-7.51,15.39-16.49,15.31h0c-8.98-.08-16.26-7.11-16.17-15.61l.73-70.45c.09-8.5,7.51-15.39,16.49-15.31Z"/>
    </g>
  </g>
  <g id="Layer_2" data-name="Layer 2">
    <g>
      <rect class="cls-21" x="268" y="383" width="47" height="113" rx="12" ry="12"/>
      <path id="whole-blub" class="cls-5" d="m337.99,444.99l-94.46,1.63c-1.82.03-3.34-1.43-3.37-3.26l-.43-24.67c-.03-1.82,1.43-3.34,3.26-3.37l94.46-1.63c1.82-.03,3.34,1.43,3.37,3.26l.43,24.67c.03,1.82-1.43,3.34-3.26,3.37Zm-75.95,42.81s7.51,15.52,16.35,15.37l26.71-.46c8.84-.15,15.81-15.92,15.81-15.92m6.23-11.62l-.3-17.23c-.02-1.27-1.08-2.3-2.35-2.27l-67.1,1.16c-1.27.02-2.3,1.08-2.27,2.35l.3,17.23c.02,1.27,1.08,2.3,2.35,2.27l67.1-1.16c1.27-.02,2.3-1.08,2.27-2.35Zm-37.08-69.71c-56.99.98-91.79-44.06-93.11-120.5-1.34-77.45,49.55-185.06,87.82-185.72,38.27-.66,92.85,105.13,94.19,182.58,1.32,76.44-31.91,122.66-88.9,123.64Zm-5.05-292.05c-22.79.39-74.91,90.23-73.51,171.3,1.18,68.57,29.73,107.42,78.31,106.58,48.58-.84,75.76-40.65,74.58-109.22-1.4-81.07-56.6-169.05-79.38-168.66Z"/>
      <path id="base" class="cls-5" d="m337.99,444.99l-94.46,1.63c-1.82.03-3.34-1.43-3.37-3.26l-.43-24.67c-.03-1.82,1.43-3.34,3.26-3.37l94.46-1.63c1.82-.03,3.34,1.43,3.37,3.26l.43,24.67c.03,1.82-1.43,3.34-3.26,3.37Zm-75.95,42.81s7.51,15.52,16.35,15.37l26.71-.46c8.84-.15,15.81-15.92,15.81-15.92m6.23-11.62l-.3-17.23c-.02-1.27-1.08-2.3-2.35-2.27l-67.1,1.16c-1.27.02-2.3,1.08-2.27,2.35l.3,17.23c.02,1.27,1.08,2.3,2.35,2.27l67.1-1.16c1.27-.02,2.3-1.08,2.27-2.35Z"/>
      <g id="blub-fill">
        <path class="cls-8" d="m283.46,108.44c-24.14.42-79.39,94.55-77.92,179.49,1.24,71.85,31.48,112.54,82.96,111.65,51.48-.89,80.29-42.61,79.05-114.45-1.47-84.94-59.93-177.11-84.08-176.7Z"/>
      </g>
      <path id="blub-stroke" class="cls-5" d="m290.07,405.45c-56.99.98-91.79-44.06-93.11-120.5-1.34-77.45,49.55-185.06,87.82-185.72,38.27-.66,92.85,105.13,94.19,182.58,1.32,76.44-31.91,122.66-88.9,123.64Zm-5.05-292.05c-22.79.39-74.91,90.23-73.51,171.3,1.18,68.57,29.73,107.42,78.31,106.58,48.58-.84,75.76-40.65,74.58-109.22-1.4-81.07-56.6-169.05-79.38-168.66Z"/>
      <path class="cls-19" d="m322.77,172.32c6.69,18.25,12.03,42.77-11.47,42.36-8.27-.14-16.21-12.59-20.68-31.48-4.94-20.85-6.01-37.27,4.89-41.05,9.45-3.28,20.62,12.04,27.26,30.17Z"/>
    </g>
    <g>
      <rect class="cls-21" x="540" y="570" width="32" height="60" rx="7.73" ry="7.73"/>
      <path class="cls-9" d="m556.5,289c-72.5.29-105.5,61.59-105.5,118.42,0,5.39.3,10.82.9,16.23,2.89,26.07,12.79,51.77,30.32,70.88,6.74,8.53,14.18,16.41,21.03,23.06,4.46,4.33,8.66,8.14,12.23,11.25,6.47,5.64,10.88,9.01,11.05,9.14l2.21,1.67v33.78h9.7s34.78-.05,34.78-.05h11.45s.11-11.47.11-11.47v-22.32l2.2-1.67c.17-.13,4.67-3.58,11.23-9.33,3.64-3.19,7.9-7.08,12.43-11.5,7.41-7.25,15.49-15.92,22.57-25.28,16.21-19.01,25.35-43.89,27.98-69.04.54-5.12.81-10.26.81-15.36,0-56.83-33.02-118.12-105.5-118.4Z"/>
      <path class="cls-5" d="m581.59,588.12l-9.59-.09-33-.32-9.27-.09c-1.79-.02-3.25,1.42-3.27,3.21l-.04,4.17c-.02,1.79,1.42,3.25,3.21,3.27l9.37.09,33,.32,9.48.09c1.79.02,3.25-1.42,3.27-3.21l.04-4.17c.02-1.79-1.42-3.25-3.21-3.27Z"/>
      <path class="cls-5" d="m574.5,607.39l-2.64-.03-33.86-.33v.13h-.76c-1.64-.02-2.98,1.29-3,2.93l-.05,4.72c-.02,1.64,1.3,2.98,2.94,3h.86v.15l33.86.33,2.53.02c1.68.02,3.06-1.33,3.08-3.02l.05-4.84c.02-1.68-1.33-3.06-3.02-3.08Z"/>
      <path class="cls-5" d="m571.23,625.05h-.89s-29.57-.3-29.57-.3c-.09,0-.18.02-.27.02-1.54.12-2.76,1.39-2.78,2.96l-.03,3.57c-.02,1.67,1.32,3.03,2.99,3.05l3.76.04c1.67.02,3,1.38,2.99,3.05-.02,1.67,1.32,3.03,2.99,3.05l10.88.11c1.67.02,3.03-1.32,3.05-2.99.02-1.67,1.38-3,3.05-2.99l3.76.04c1.67.02,3.03-1.32,3.05-2.99l.03-3.57c.02-1.67-1.32-3.03-2.99-3.05Z"/>
      <path class="cls-5" d="m642.41,321.3c-20.31-26.01-49.47-40-84.34-40.47h-.04c-34.88-.21-64.31,13.22-85.12,38.83-18.3,22.52-28.55,52.87-28.87,85.46-.25,25.75,5.74,50.21,17.07,70.63,15.85,30.36,47.77,57.38,56.47,64.4l-.25,25.85-.12,12.6,21.79.19,33,.28,21.59.18.13-13.26.25-25.19c9.5-7.39,46.41-37.53,61.09-70.43,9.27-18.67,14.34-40.33,14.56-63.09.32-32.58-9.35-63.12-27.2-85.99Zm13.07,100.16c-2.5,23.87-11.17,47.47-26.56,65.52-6.72,8.88-14.39,17.11-21.42,23.99-4.29,4.2-8.34,7.89-11.79,10.92-6.23,5.46-10.49,8.73-10.65,8.85l-2.09,1.59v21.18l-.11,10.88h-10.87s-33,.05-33,.05h-9.21s0-32.04,0-32.04l-2.1-1.59c-.16-.12-4.35-3.33-10.48-8.67-3.39-2.96-7.38-6.57-11.61-10.68-6.49-6.31-13.56-13.79-19.95-21.88-16.63-18.13-26.03-42.52-28.77-67.26-.57-5.14-.85-10.29-.85-15.4,0-53.94,31.32-112.11,100.11-112.38,68.78.26,100.11,58.42,100.11,112.35,0,4.84-.26,9.71-.76,14.58Z"/>
      <ellipse class="cls-7" cx="600.23" cy="379.1" rx="29.75" ry="35.75"/>
    </g>
    <g class="cls-4">
      <path class="cls-10" d="m594.42,83.83v36.35h-65.71v28.89h48.46v34.72h-48.46v64.31h-45.67V83.83h111.37Z"/>
      <path class="cls-10" d="m659.43,83.83v164.27h-45.67V83.83h45.67Z"/>
      <path class="cls-10" d="m837.67,248.1h-45.67l-60.81-91.8v91.8h-45.67V83.83h45.67l60.81,92.97v-92.97h45.67v164.27Z"/>
      <path class="cls-10" d="m974.09,94.2c12.97,6.91,22.95,16.58,29.94,29.01,6.99,12.43,10.48,26.64,10.48,42.64s-3.54,29.98-10.6,42.41c-7.07,12.43-17.09,22.17-30.06,29.24-12.97,7.07-28,10.6-45.09,10.6h-65.01V83.83h65.01c17.24,0,32.35,3.46,45.32,10.37Zm-17.36,102.64c7.61-7.3,11.42-17.63,11.42-30.99s-3.81-23.96-11.42-31.34c-7.61-7.38-18.1-11.07-31.46-11.07h-15.84v84.35h15.84c13.36,0,23.84-3.65,31.46-10.95Z"/>
      <path class="cls-10" d="m1228.88,83.83l-57.79,112.07v52.19h-45.9v-52.19l-57.79-112.07h52.19l28.89,63.38,28.89-63.38h51.49Z"/>
      <path class="cls-10" d="m1279.2,238.89c-12.89-7.22-23.11-17.24-30.64-30.06-7.54-12.81-11.3-27.3-11.3-43.45s3.76-30.64,11.3-43.45c7.53-12.81,17.74-22.79,30.64-29.94,12.89-7.14,27.03-10.72,42.41-10.72s29.71,3.58,42.52,10.72c12.82,7.15,22.95,17.13,30.41,29.94,7.46,12.81,11.18,27.3,11.18,43.45s-3.73,30.64-11.18,43.45c-7.46,12.82-17.63,22.83-30.52,30.06-12.9,7.22-27.03,10.83-42.41,10.83s-29.52-3.61-42.41-10.83Zm70.02-42.99c6.76-7.61,10.14-17.78,10.14-30.52s-3.38-23.34-10.14-30.87c-6.76-7.53-15.96-11.3-27.61-11.3s-21.05,3.77-27.73,11.3c-6.68,7.54-10.02,17.82-10.02,30.87s3.34,23.11,10.02,30.64c6.68,7.54,15.92,11.3,27.73,11.3s20.85-3.8,27.61-11.42Z"/>
      <path class="cls-10" d="m1470.96,83.83v95.3c0,8.85,2.06,15.69,6.18,20.5,4.11,4.82,10.37,7.22,18.76,7.22s14.71-2.45,18.99-7.34c4.27-4.89,6.41-11.69,6.41-20.39v-95.3h45.67v95.3c0,15.07-3.19,27.92-9.55,38.56-6.37,10.64-15.03,18.64-25.98,24-10.95,5.36-23.11,8.04-36.46,8.04s-25.28-2.68-35.77-8.04c-10.49-5.36-18.72-13.32-24.7-23.88-5.98-10.56-8.97-23.45-8.97-38.68v-95.3h45.44Z"/>
      <path class="cls-10" d="m1675.29,248.1l-32.62-60.58h-4.89v60.58h-45.67V83.83h72c13.2,0,24.38,2.29,33.55,6.87,9.16,4.58,16.08,10.87,20.74,18.87,4.66,8,6.99,16.97,6.99,26.91,0,11.18-3.07,21.01-9.2,29.47-6.14,8.47-15.11,14.49-26.91,18.06l37.05,64.08h-51.03Zm-37.51-91.8h22.6c6.21,0,10.87-1.47,13.98-4.43,3.11-2.95,4.66-7.22,4.66-12.81,0-5.28-1.59-9.44-4.78-12.47-3.19-3.03-7.81-4.54-13.86-4.54h-22.6v34.25Z"/>
    </g>
    <g class="cls-4">
      <path class="cls-19" d="m1173.41,298.39v196.69h-54.68v-196.69h54.68Z"/>
      <path class="cls-19" d="m1336.76,310.81c15.53,8.28,27.48,19.86,35.85,34.74,8.37,14.88,12.55,31.9,12.55,51.06s-4.23,35.9-12.69,50.78c-8.47,14.88-20.46,26.55-35.99,35.01-15.53,8.47-33.53,12.69-53.99,12.69h-77.84v-196.69h77.84c20.65,0,38.73,4.14,54.27,12.42Zm-20.79,122.9c9.11-8.74,13.67-21.11,13.67-37.11s-4.56-28.69-13.67-37.53c-9.12-8.83-21.67-13.25-37.67-13.25h-18.97v101h18.97c15.99,0,28.55-4.37,37.67-13.11Z"/>
      <path class="cls-19" d="m1464.4,342.2v32.08h62.78v41.57h-62.78v35.43h71.15v43.8h-125.83v-196.69h125.83v43.8h-71.15Z"/>
      <path class="cls-19" d="m1687.04,463h-69.75l-10.6,32.08h-57.47l71.7-196.69h63.05l71.42,196.69h-57.75l-10.6-32.08Zm-13.67-41.85l-21.2-63.61-20.92,63.61h42.13Z"/>
    </g>
    <g>
      <polygon class="cls-22" points="1338.61 883.39 1338.61 864 1303.36 864.11 1303.36 883.39 1303.36 886.62 1303.36 893.75 1309.4 893.75 1309.4 916.82 1325.08 916.82 1332.56 916.82 1332.56 893.75 1332.82 893.75 1338.61 893.75 1338.61 883.39 1338.61 883.39"/>
      <path class="cls-10" d="m1354.26,855.97h-67.76c-.83,0-1.5.97-1.5,2.17v4.28c0,1.43.8,2.59,1.79,2.59l17.72-.03,33.92-.06,15.54-.03c1.12,0,2.03-1.31,2.03-2.93v-3.48c0-1.39-.78-2.51-1.74-2.51Z"/>
      <path class="cls-10" d="m1346.55,873.05h-51.8c-.9,0-1.62.73-1.62,1.62v6.53c0,1.18.96,2.13,2.13,2.13h51.02c1.76,0,3.19-1.43,3.19-3.19v-4.18c0-1.62-1.31-2.93-2.93-2.93Z"/>
      <path class="cls-10" d="m1341.04,891.86h-37.97c-1.24,0-2.24,1-2.24,2.24v5.64c0,1.33,1.08,2.41,2.41,2.41h38.02c.75,0,1.36-.61,1.36-1.36v-7.35c0-.88-.71-1.58-1.58-1.58Z"/>
      <path class="cls-10" d="m1338.56,908.82h-32.98c-.68,0-1.23.55-1.23,1.23v6.79c0,.7.57,1.26,1.26,1.26h8.19v3.95c0,1.04.84,1.88,1.88,1.88h13.18c.71,0,1.28-.57,1.28-1.28v-4.54h7.57c1.04,0,1.88-.84,1.88-1.88v-6.35c0-.57-.47-1.04-1.04-1.04Z"/>
      <path class="cls-16" d="m1346.55,583.7c-22.49-14.28-25.94-21.53-33.84-20.76-2.53.24-3.26,1.09-19.93,15.67-3.46,3.03-6.59,5.75-9.26,8.08-45.5,17.99-66.7,68.96-66.69,109.74,0,4.77.29,9.57.87,14.36,2.8,23.08,12.42,45.83,29.44,62.74,6.54,7.55,13.77,14.52,20.42,20.41,4.33,3.84,8.41,7.2,11.88,9.96,6.28,4.99,10.56,7.98,10.73,8.09l2.14,1.48v29.9l54.41-.06v-29.9l2.14-1.48c.17-.11,4.53-3.17,10.9-8.26,3.53-2.82,7.67-6.26,12.07-10.18,7.19-6.41,15.04-14.09,21.91-22.37,15.74-16.83,24.62-38.85,27.17-61.11.52-4.54.78-9.08.78-13.6,0-43.32-23.62-98.16-75.13-112.7Z"/>
      <circle class="cls-11" cx="1357" cy="647" r="25"/>
    </g>
  </g>
</svg>