<?xml version="1.0" encoding="UTF-8"?>
<svg xmlns="http://www.w3.org/2000/svg" viewBox="0 0 799.84 672.5">
  <defs>
    <style>
      .cls-1 {
        fill: #fff;
      }

      .cls-2 {
        fill: #a940bf;
      }

      .cls-3 {
        fill: #333;
      }

      .cls-4 {
        fill: #f7931e;
      }

      .cls-5 {
        fill: #1b1464;
      }

      .cls-6 {
        fill: #ccc;
      }

      .cls-7 {
        fill: #f2f2f2;
      }
    </style>
  </defs>
  <g id="Layer_11" data-name="Layer 11">
    <rect class="cls-1" x="-200" y="-228.5" width="2899" height="1217"/>
  </g>
  <g id="Layer_1" data-name="Layer 1">
    <rect class="cls-2" x="576" y="220.75" width="103.66" height="293.9"/>
    <path class="cls-3" d="m576,551.1h103.66v40.37c0,6.64-5.39,12.03-12.03,12.03h-79.72c-6.58,0-11.91-5.34-11.91-11.91v-40.49h0Z"/>
    <path class="cls-3" d="m671.11,162.36l-29.04-43.09c-8.97-13.31-22.98-12.97-31.3.75l-26.93,44.44c-3.94,6.51-5.87,14.85-5.88,23.25l100.23-.27c-.09-9.12-2.45-18.24-7.07-25.09Z"/>
  </g>
  <g id="Layer_4" data-name="Layer 4">
    <g id="Layer_8" data-name="Layer 8">
      <g>
        <path class="cls-3" d="m261.99,367.64l13.71,10.81,84.21-100.1c17.6-20.92,49.69-24.1,71.3-7.06l61.34,48.36v-122.05c0-38.18-32.26-69.41-71.7-69.41h-5.95v40.57c0,20.21-16.54,36.74-36.74,36.74h-172.76c-20.21,0-36.74-16.54-36.74-36.74v-40.57h-5.95c-39.43,0-71.7,31.24-71.7,69.41v295.61l99.69-118.5c17.6-20.92,49.69-24.1,71.3-7.06Z"/>
        <path class="cls-1" d="m205.39,205.5h172.76c20.21,0,36.74-16.54,36.74-36.74v-40.57h-246.25v40.57c0,20.21,16.54,36.74,36.74,36.74Z"/>
        <path class="cls-5" d="m370.38,326.38l-64.09,76.19,184.61,145.55c1.07-4.74,1.64-9.66,1.64-14.7v-174l-50.86-40.1c-21.61-17.04-53.7-13.86-71.3,7.06Z"/>
        <path class="cls-6" d="m441.68,319.31l50.86,40.1v-39.77l-61.34-48.36c-21.61-17.04-53.7-13.86-71.3,7.06l-84.21,100.1-13.71-10.81c-21.61-17.04-53.7-13.86-71.3,7.06l-99.69,118.5v40.21s0,.02,0,.03l99.49-118.27c15.76-18.73,43.12-23.23,64.19-11.74,2.47,1.34,4.85,2.89,7.11,4.68l23.95,18.88,190.58,150.26c7.05-8.34,12.13-18.27,14.58-29.14l-184.61-145.55,64.09-76.19c17.6-20.92,49.69-24.1,71.3-7.06Z"/>
        <path class="cls-4" d="m285.74,427l-23.95-18.88c-2.26-1.79-4.65-3.34-7.11-4.68-21.07-11.49-48.43-6.99-64.19,11.74l-99.49,118.27c.02,38.16,32.28,69.38,71.7,69.38h258.15c22.3,0,42.3-9.99,55.48-25.57l-190.58-150.26Z"/>
      </g>
      <g id="Layer_5" data-name="Layer 5">
        <path class="cls-3" d="m214.36,71.5h155.75c10.03,0,18.17,8.14,18.17,18.17v77.83h-195.23v-74.69c0-11.76,9.55-21.31,21.31-21.31Z"/>
      </g>
      <g id="Layer_10" data-name="Layer 10">
        <ellipse class="cls-7" cx="193.05" cy="283.5" rx="39.93" ry="36"/>
      </g>
    </g>
  </g>
</svg>