<?xml version="1.0" encoding="utf-8"?>
<!-- Generator: Adobe Illustrator 27.1.1, SVG Export Plug-In . SVG Version: 6.00 Build 0)  -->
<svg version="1.1" id="Layer_1" xmlns="http://www.w3.org/2000/svg" xmlns:xlink="http://www.w3.org/1999/xlink" x="0px" y="0px"
	 viewBox="0 0 48 48" style="enable-background:new 0 0 48 48;" xml:space="preserve">
<style type="text/css">
	.st0{fill:#A5A5A5;}
	.st1{fill:#39345D;}
	.st2{fill:#777789;}
	.st3{fill:#D3AE56;}
	.st4{enable-background:new    ;}
	.st5{fill:#901E88;}
</style>
<g id="Layer_1_00000114052044610213015450000017029285748694339514_">
	<g>
		<path class="st0" d="M36,16c0-0.9-0.1-1.8-0.3-2.7L12,16.7c0.1,2.1,0.7,4,1.6,5.8l22-3.1C35.8,18.3,36,17.2,36,16z"/>
		<path class="st1" d="M18,36.3c0,2.3,2.7,4.2,6,4.2s6-1.9,6-4.2c0,0,0-2.1,0-2.7v-0.9l-12,1.2C18,34.6,18,36.3,18,36.3z"/>
		<path class="st2" d="M34.5,22.3L15,25.1c1.3,2.3,2.6,4.3,2.9,6l12.8-1.8C31.6,27.2,33.2,25,34.5,22.3z"/>
		<path class="st3" d="M24,4c-5.9,0-10.8,4.2-11.8,9.8l22.5-3.2C32.7,6.7,28.7,4,24,4z"/>
	</g>
	<g class="st4">
		<path class="st5" d="M11.4,46.6l-1.5-4.5H11l0.6,1.9c0.2,0.5,0.3,1.1,0.4,1.6h0c0.1-0.5,0.3-1.1,0.4-1.6l0.6-1.9h1.1l-1.5,4.5
			H11.4z"/>
		<path class="st5" d="M15.6,42.1v4.5h-1v-4.5H15.6z"/>
	</g>
	<g class="st4">
		<path class="st1" d="M16.5,42.1c0.4-0.1,0.9-0.1,1.4-0.1c0.9,0,1.4,0.2,1.9,0.5c0.5,0.3,0.8,0.9,0.8,1.7c0,0.9-0.3,1.5-0.8,1.8
			c-0.5,0.4-1.2,0.6-2.1,0.6c-0.5,0-0.9,0-1.2-0.1V42.1z M17.5,45.8c0.1,0,0.2,0,0.4,0c0.9,0,1.5-0.5,1.5-1.6c0-0.9-0.5-1.4-1.4-1.4
			c-0.2,0-0.4,0-0.5,0V45.8z"/>
		<path class="st1" d="M23.9,44.7h-1.7v1.1h1.9v0.8h-2.9v-4.5H24v0.8h-1.8v0.9h1.7V44.7z"/>
	</g>
	<g class="st4">
		<path class="st2" d="M24.7,45.5c0.3,0.1,0.7,0.3,1.1,0.3c0.5,0,0.7-0.2,0.7-0.5c0-0.3-0.2-0.4-0.8-0.6c-0.8-0.3-1.2-0.7-1.2-1.3
			c0-0.8,0.6-1.4,1.7-1.4c0.5,0,0.9,0.1,1.2,0.2l-0.2,0.8c-0.2-0.1-0.5-0.2-0.9-0.2s-0.7,0.2-0.7,0.4c0,0.3,0.3,0.4,0.8,0.6
			c0.8,0.3,1.2,0.7,1.2,1.3c0,0.8-0.6,1.4-1.8,1.4c-0.5,0-1-0.1-1.3-0.3L24.7,45.5z"/>
		<path class="st2" d="M29.3,42.1v4.5h-1v-4.5H29.3z"/>
		<path class="st2" d="M34,46.4c-0.3,0.1-0.9,0.3-1.5,0.3c-0.8,0-1.4-0.2-1.8-0.6c-0.4-0.4-0.6-1-0.6-1.6c0-1.5,1.1-2.4,2.6-2.4
			c0.6,0,1,0.1,1.3,0.2l-0.2,0.8c-0.2-0.1-0.6-0.2-1.1-0.2c-0.9,0-1.5,0.5-1.5,1.5c0,0.9,0.6,1.5,1.4,1.5c0.2,0,0.4,0,0.5-0.1v-0.9
			h-0.7V44H34V46.4z"/>
		<path class="st2" d="M34.8,46.6v-4.5H36l0.9,1.7c0.3,0.5,0.5,1,0.7,1.6h0c-0.1-0.6-0.1-1.2-0.1-1.9v-1.3h0.9v4.5h-1.1l-1-1.7
			c-0.3-0.5-0.6-1.1-0.8-1.6l0,0c0,0.6,0,1.2,0,2v1.4H34.8z"/>
	</g>
</g>
<g id="Layer_2_00000032647483741089440600000012581229202041840818_">
</g>
</svg>
