<?xml version="1.0" encoding="utf-8"?>
<!-- Generator: Adobe Illustrator 27.1.1, SVG Export Plug-In . SVG Version: 6.00 Build 0)  -->
<svg version="1.1" xmlns="http://www.w3.org/2000/svg" xmlns:xlink="http://www.w3.org/1999/xlink" x="0px" y="0px"
	 viewBox="0 0 1312 960" style="enable-background:new 0 0 1312 960;" xml:space="preserve">
<style type="text/css">
	.st0{fill:none;stroke:#4D4D4D;stroke-width:20;stroke-miterlimit:10;}
	.st1{fill:#0C1153;}
	.st2{fill:#292F63;}
	.st3{fill:#CCCCCC;}
</style>
<g id="line_00000173880558355002141140000015635633369235590802_">
	<path id="line" class="st0" d="M335,286c-3.4-18-6.8-49.5,3-86c14.8-55.2,52.1-92.9,81-112c83.8-55.3,190.4-42.7,259,19
		c40,36,66.2,59.5,174,211c67.8,95.2,110.4,139.3,144,162c88.7,59.9,221.4,90.4,300,25c10.7-8.9,35.1-35.4,58-54
		c22.5-18.2,26.8-25.6,44-29"/>
</g>
<g id="rectangle">
	<path id="Rectangle" class="st1" d="M372.2,939h-60.5C189.8,939,90,839.2,90,717.2V443.8c0-122,99.8-221.8,221.8-221.8h60.5
		c122,0,221.8,99.8,221.8,221.8v273.5C594,839.2,494.2,939,372.2,939z"/>
	<g id="Rectangle-front">
		<path class="st2" d="M362.2,925h-60.5C179.8,925,80,825.2,80,703.2V429.8c0-122,99.8-221.8,221.8-221.8h60.5
			c122,0,221.8,99.8,221.8,221.8v273.5C584,825.2,484.2,925,362.2,925z"/>
	</g>
</g>
<g id="cursor">
	<path class="st3" d="M352,229.6v163.1c0,9.2-7.6,16.8-16.8,16.8h0c-9.2,0-16.8-7.6-16.8-16.8V229.6c0-9.2,7.6-16.8,16.8-16.8h0
		C344.4,212.9,352,220.4,352,229.6z"/>
</g>
</svg>
