<?xml version="1.0" encoding="UTF-8"?>
<svg xmlns="http://www.w3.org/2000/svg" viewBox="0 0 799.84 672.5">
  <defs>
    <style>
      .cls-1 {
        fill: #fff;
      }

      .cls-2 {
        fill: #333;
      }

      .cls-3 {
        fill: #999;
      }

      .cls-4 {
        fill: #f2f2f2;
      }
    </style>
  </defs>
  <g id="Layer_11" data-name="Layer 11">
    <rect class="cls-1" x="-1019.84" y="-228.5" width="2899" height="1217"/>
  </g>
  <g id="Photo">
    <g>
      <path class="cls-2" d="m652.99,153.93h-35.85l-26.73-46.29c-16.84-29.17-47.96-47.14-81.65-47.14h-186.43c-33.68,0-64.81,17.97-81.65,47.14l-26.73,46.29h-36.8c-55.56,0-101.01,45.45-101.01,101.01v256.55c0,55.56,45.45,101.01,101.01,101.01h475.82c55.56,0,101.01-45.45,101.01-101.01V254.94c0-55.56-45.45-101.01-101.01-101.01Z"/>
      <rect class="cls-3" x="130.16" y="210.5" width="85" height="49" rx="24.5" ry="24.5"/>
      <circle class="cls-4" cx="422.16" cy="366.5" r="176"/>
      <circle class="cls-3" cx="422.66" cy="367" r="150.5"/>
    </g>
  </g>
</svg>